<?xml version="1.0" standalone="no"?>
<!DOCTYPE svg PUBLIC "-//W3C//DTD SVG 20010904//EN"
 "http://www.w3.org/TR/2001/REC-SVG-20010904/DTD/svg10.dtd">
<svg version="1.0" xmlns="http://www.w3.org/2000/svg"
 width="1000.000000pt" height="500.000000pt" viewBox="0 0 1000.000000 500.000000"
 preserveAspectRatio="xMidYMid meet">

<g transform="translate(0.000000,500.000000) scale(0.100000,-0.100000)"
fill="#000000" stroke="none">
<path d="M6815 4990 c-3 -5 -1 -10 4 -10 6 0 11 5 11 10 0 6 -2 10 -4 10 -3 0
-8 -4 -11 -10z"/>
<path d="M6859 4983 c-13 -17 -13 -17 6 -3 11 8 22 16 24 17 2 2 0 3 -6 3 -6
0 -17 -8 -24 -17z"/>
<path d="M6997 4979 c-6 -22 13 -35 37 -26 20 8 40 -18 33 -43 -3 -11 -1 -20
4 -20 5 0 4 -9 -3 -19 -7 -11 -16 -17 -20 -15 -4 3 -8 0 -8 -5 0 -14 27 -14
35 -1 4 7 13 7 26 0 23 -13 24 -5 5 33 -8 15 -13 27 -10 27 12 0 34 -30 40
-55 6 -26 5 -27 -20 -21 -24 6 -27 3 -25 -21 0 -5 6 -7 14 -5 7 1 16 -1 18 -5
3 -5 -13 -9 -34 -10 -21 -1 -39 1 -39 5 -1 4 -10 18 -21 31 l-19 24 -20 -23
c-20 -23 -20 -23 0 -37 11 -8 25 -11 31 -8 11 8 56 -34 51 -48 -1 -5 2 -6 7
-2 6 3 8 12 4 20 -3 8 -1 15 5 15 6 0 12 -5 14 -11 4 -13 50 -21 115 -20 28 0
43 -5 47 -15 4 -10 13 -13 26 -9 15 5 22 1 29 -17 7 -17 10 -19 10 -5 1 20 5
21 33 6 16 -9 18 -13 7 -20 -17 -10 -2 -28 27 -34 11 -2 21 -4 24 -4 3 -1 -2
-5 -10 -11 -8 -5 -12 -10 -10 -12 39 -25 70 -36 70 -24 0 9 9 12 26 8 19 -3
22 -7 12 -13 -9 -6 -9 -9 -1 -9 6 0 15 5 18 10 4 6 11 8 16 4 6 -3 36 -8 67
-10 31 -2 80 -6 107 -9 28 -2 100 -7 160 -11 61 -3 133 -12 161 -20 72 -19
356 -24 414 -7 25 8 54 13 65 12 11 -1 33 3 48 10 16 6 33 8 38 5 13 -7 139
-7 264 1 111 7 105 6 335 37 118 15 216 22 344 21 172 0 178 1 158 18 -12 9
-22 20 -22 24 0 4 6 3 13 -3 8 -7 18 -7 27 -2 12 8 10 10 -7 10 -12 0 -25 5
-29 11 -4 7 -15 2 -30 -14 -26 -29 -64 -26 -64 4 0 10 -4 21 -10 24 -5 3 -10
1 -10 -4 0 -6 -11 -11 -25 -11 -14 0 -25 -6 -26 -12 0 -7 -3 -5 -7 4 -7 16 -9
16 -37 2 -39 -21 -75 -35 -75 -29 0 2 10 13 22 25 12 11 18 20 13 20 -5 0 -2
6 7 13 8 6 21 28 29 47 7 19 22 45 33 58 11 12 21 30 22 38 2 9 12 38 23 65
25 57 26 69 5 69 -10 0 -14 -5 -10 -16 3 -8 2 -12 -3 -9 -6 3 -14 -2 -19 -10
-5 -9 -16 -17 -24 -19 -27 -3 -48 -27 -48 -52 0 -15 -6 -24 -15 -24 -8 0 -15
5 -15 11 0 5 4 7 10 4 5 -3 2 11 -6 31 -8 19 -11 33 -6 30 6 -3 15 1 22 9 7 8
9 15 4 15 -5 0 -1 5 9 11 9 5 17 18 17 27 0 10 -3 13 -8 7 -4 -5 -14 -10 -22
-10 -8 0 -14 -5 -13 -12 2 -7 -3 -10 -11 -7 -14 5 -46 -20 -46 -37 0 -16 -15
-10 -29 12 -11 19 -11 21 4 16 9 -4 14 -3 11 2 -3 5 4 11 16 15 19 4 20 8 10
18 -11 11 -15 10 -23 -4 -6 -10 -17 -18 -26 -18 -12 0 -13 3 -3 14 9 12 8 15
-9 13 -11 -1 -18 -3 -16 -5 2 -3 0 -13 -6 -23 -7 -15 -6 -17 6 -13 8 4 15 1
15 -5 0 -17 -36 -13 -51 6 -11 13 -11 17 -1 20 16 6 16 23 -1 23 -16 0 -19
-30 -4 -48 12 -15 -20 -43 -40 -35 -7 3 -13 0 -13 -6 0 -6 8 -11 18 -11 16 -1
16 -1 0 -11 -10 -5 -18 -20 -19 -32 0 -12 -3 -16 -6 -9 -8 21 -24 13 -21 -10
2 -15 -2 -23 -12 -24 -35 -2 -41 -5 -35 -13 7 -12 -33 -41 -55 -41 -8 1 -2 6
13 13 33 14 36 24 11 41 -22 17 -64 -2 -64 -28 0 -20 0 -20 16 0 14 17 15 17
10 1 -3 -10 -6 -23 -6 -28 0 -5 -11 -9 -24 -9 -14 0 -27 -4 -31 -9 -8 -15 15
-25 28 -12 20 20 39 13 32 -11 -4 -15 -3 -18 3 -10 13 19 81 51 88 41 3 -5 -2
-12 -10 -15 -9 -3 -16 -12 -16 -19 0 -20 38 -6 45 16 4 11 12 16 22 12 13 -5
15 -1 9 20 -5 20 -3 27 8 27 9 0 13 -6 11 -12 -7 -18 15 -47 22 -30 2 6 13 12
23 12 10 0 21 7 24 15 3 9 19 21 36 26 16 6 30 18 30 26 0 12 3 13 14 4 11 -9
20 -10 35 -1 17 9 20 8 15 -5 -3 -8 -10 -12 -15 -9 -5 3 -9 0 -9 -5 0 -16 26
-13 41 5 11 14 13 14 22 -2 7 -13 5 -21 -7 -30 -10 -7 -16 -22 -14 -36 3 -21
-1 -23 -40 -24 -40 -1 -42 0 -26 18 16 17 16 18 -1 18 -14 0 -15 3 -5 15 9 11
9 15 1 15 -6 0 -14 -7 -18 -16 -3 -8 -12 -13 -19 -10 -7 3 -16 1 -19 -5 -4 -5
1 -12 9 -15 8 -3 18 -14 21 -24 4 -11 12 -17 20 -14 8 3 22 1 32 -6 15 -10 14
-10 -9 -5 -16 3 -28 1 -28 -4 0 -13 -25 -20 -48 -14 -27 7 -35 40 -14 53 15 8
14 9 -6 10 -12 0 -21 -3 -20 -7 5 -17 -24 -54 -40 -52 -9 1 -25 -1 -35 -6 -24
-10 -33 1 -16 22 11 15 11 16 -1 6 -8 -7 -22 -13 -32 -13 -10 0 -18 -7 -18
-15 0 -8 -4 -15 -9 -15 -5 0 -16 -3 -25 -6 -9 -4 -16 -1 -16 6 0 6 9 14 20 17
12 3 19 11 17 17 -5 14 -37 21 -37 7 0 -17 -67 -84 -78 -77 -5 3 -13 -1 -16
-10 -9 -24 -16 -12 -22 32 -6 47 -14 57 -15 18 l0 -29 -10 25 c-8 20 -12 22
-19 10 -6 -10 -3 -21 8 -34 16 -18 16 -19 -12 -12 -22 6 -31 3 -43 -14 -8 -11
-18 -18 -23 -15 -4 3 -10 -1 -12 -7 -3 -8 -9 -5 -16 9 -9 17 -9 27 3 50 8 15
15 24 15 18 0 -5 5 -2 11 8 6 9 14 15 18 13 4 -3 8 1 8 8 0 10 -5 12 -19 5
-10 -5 -27 -13 -37 -19 -14 -7 -21 -5 -25 5 -8 23 -28 18 -21 -5 8 -24 3 -25
-36 -4 -29 14 -30 14 -27 -3 1 -10 -1 -24 -6 -31 -4 -7 -3 -19 3 -26 9 -10 7
-15 -8 -19 -21 -5 -46 15 -34 27 12 11 -31 -6 -47 -19 -27 -22 -57 -27 -64
-10 -3 8 -11 15 -18 15 -10 0 -10 -2 1 -9 8 -5 9 -11 3 -15 -6 -3 -17 1 -25 9
-9 8 -23 12 -32 9 -14 -6 -14 -8 2 -19 15 -11 15 -13 -7 -20 -34 -11 -99 -8
-115 5 -10 8 -19 8 -36 -2 -17 -10 -23 -10 -26 0 -3 6 -9 10 -14 6 -5 -3 -9 0
-9 5 0 6 7 11 15 11 9 0 15 9 15 23 0 12 4 29 10 37 12 20 -7 31 -37 19 -16
-6 -23 -5 -23 3 0 6 -2 9 -5 6 -11 -11 7 -37 22 -31 12 5 14 1 8 -18 -4 -13
-12 -25 -16 -27 -5 -2 -9 -11 -9 -21 0 -9 -8 -17 -17 -18 -10 -1 -38 -4 -62
-8 -56 -8 -53 -8 -75 -6 -11 0 -16 4 -13 8 4 3 -7 15 -24 25 -19 12 -29 24
-25 33 6 18 -10 20 -20 3 -4 -6 -2 -14 4 -16 17 -5 15 -22 -3 -22 -8 0 -15 5
-15 10 0 6 -8 10 -17 10 -15 0 -14 2 3 16 10 8 14 13 7 9 -7 -3 -17 3 -22 14
-6 11 -20 23 -32 26 -16 5 -18 10 -8 21 8 10 8 14 0 14 -6 0 -11 5 -11 11 0 8
12 10 35 6 22 -4 37 -1 41 6 4 7 3 9 -1 4 -5 -4 -16 0 -26 9 -13 12 -22 13
-37 5 -14 -8 -24 -7 -38 4 -18 14 -18 14 3 15 12 0 25 5 28 10 7 11 0 12 -32
4 -22 -6 -33 -34 -13 -34 6 0 10 -9 10 -19 0 -11 5 -23 10 -26 6 -3 10 -10 10
-16 0 -13 -34 -11 -49 4 -11 10 -13 10 -7 0 4 -8 1 -13 -8 -13 -21 0 -20 17 2
29 28 17 4 12 -30 -5 -24 -13 -36 -14 -56 -5 -24 11 -24 12 -6 32 15 17 16 22
4 29 -9 6 -18 3 -27 -8 -7 -9 -12 -12 -13 -7 0 20 17 36 35 33 10 -2 20 3 22
10 4 9 -2 11 -21 6 -14 -3 -34 -3 -43 0 -15 6 -15 8 -3 16 29 18 68 11 90 -17
14 -18 24 -23 31 -16 19 19 -12 53 -51 54 -62 3 -68 4 -75 11 -4 4 -13 4 -21
1 -8 -3 -22 1 -31 8 -9 8 -14 9 -10 3 5 -8 -4 -12 -28 -12 -19 0 -42 -7 -50
-16 -18 -18 -12 -21 14 -7 10 6 23 6 32 0 11 -7 9 -9 -7 -9 -16 0 -21 -6 -21
-25 0 -16 5 -25 16 -25 13 0 14 -2 2 -9 -10 -7 -19 -4 -27 7 -11 16 -14 16
-31 -1 -11 -9 -23 -14 -26 -10 -12 12 -7 23 11 23 16 1 16 1 -1 11 -13 8 -22
4 -42 -18 -13 -15 -25 -22 -25 -15 0 6 5 12 11 12 5 0 8 4 4 10 -3 5 -12 7
-20 3 -10 -3 -15 1 -15 11 0 15 -3 15 -29 1 -28 -14 -30 -14 -36 5 -3 11 -11
19 -18 17 -6 -1 -11 5 -12 13 0 8 -10 16 -23 18 -16 3 -22 8 -18 18 3 9 1 12
-4 9 -28 -17 -60 -15 -70 5 -6 11 -15 18 -20 15 -5 -3 -10 5 -12 17 -3 20 -8
23 -45 21 -24 -1 -43 3 -43 8 0 5 -6 9 -13 9 -7 0 -19 16 -26 35 -11 30 -17
35 -45 35 -26 0 -35 -5 -39 -21z m2418 -89 c3 -5 1 -10 -4 -10 -6 0 -11 5 -11
10 0 6 2 10 4 10 3 0 8 -4 11 -10z m-95 -6 c0 -8 -19 -13 -24 -6 -3 5 1 9 9 9
8 0 15 -2 15 -3z m33 -20 c11 -11 -3 -24 -18 -18 -8 4 -12 10 -9 15 6 11 18
12 27 3z m-2136 -65 c3 -11 11 -16 21 -12 11 3 9 -3 -7 -16 -13 -12 -33 -21
-45 -21 -16 0 -18 2 -7 9 8 5 12 19 9 33 -5 29 22 35 29 7z m103 11 c8 -5 12
-12 9 -15 -8 -8 -39 5 -39 16 0 11 11 11 30 -1z m361 -20 c-7 -4 -3 -11 12
-19 15 -8 23 -20 22 -34 -1 -12 2 -28 8 -35 8 -10 5 -11 -17 -2 -34 13 -39 13
-31 0 4 -7 -2 -7 -19 0 -15 5 -26 5 -28 0 -2 -6 -9 -6 -18 0 -13 8 -12 12 5
27 26 24 53 27 57 8 2 -13 5 -12 16 5 7 11 9 20 5 19 -21 -4 -29 3 -29 25 0
16 4 22 14 19 9 -4 10 -8 3 -13z m-515 -12 c4 -6 3 -8 -4 -4 -5 3 -12 0 -15
-6 -2 -7 -8 -9 -13 -5 -5 4 -2 12 6 17 19 12 17 12 26 -2z m564 -104 c0 -2 -7
-4 -15 -4 -8 0 -15 4 -15 10 0 5 7 7 15 4 8 -4 15 -8 15 -10z m-282 -19 c-3
-3 -9 2 -12 12 -6 14 -5 15 5 6 7 -7 10 -15 7 -18z m229 -1 c-9 -9 -28 6 -21
18 4 6 10 6 17 -1 6 -6 8 -13 4 -17z m102 12 c9 -11 7 -15 -8 -19 -22 -5 -31
0 -31 20 0 17 24 17 39 -1z m111 -32 c0 -3 -6 -2 -12 2 -9 5 -8 2 1 -10 9 -11
17 -13 21 -6 4 6 14 8 23 4 31 -12 17 -24 -25 -21 -31 1 -47 8 -55 22 -22 37
-16 47 17 30 17 -9 30 -18 30 -21z m45 16 c-3 -5 -12 -7 -20 -3 -21 7 -19 13
6 13 11 0 18 -4 14 -10z m1285 0 c0 -5 -7 -10 -16 -10 -8 0 -12 5 -9 10 3 6
10 10 16 10 5 0 9 -4 9 -10z m-1404 -27 c-10 -10 -19 5 -10 18 6 11 8 11 12 0
2 -7 1 -15 -2 -18z m-361 -3 c-3 -5 -11 -10 -16 -10 -6 0 -7 5 -4 10 3 6 11
10 16 10 6 0 7 -4 4 -10z m1309 1 c3 -5 0 -11 -7 -14 -8 -3 -14 1 -14 9 0 16
13 19 21 5z m-689 -61 c3 -5 1 -10 -4 -10 -6 0 -11 5 -11 10 0 6 2 10 4 10 3
0 8 -4 11 -10z"/>
<path d="M8675 4990 c3 -5 8 -10 11 -10 2 0 4 5 4 10 0 6 -5 10 -11 10 -5 0
-7 -4 -4 -10z"/>
<path d="M8871 4989 c0 -10 -10 -17 -23 -17 -76 -2 -162 -1 -168 3 -4 3 -27
-2 -51 -9 l-44 -13 60 -2 c77 -1 92 -2 141 -1 23 1 55 -2 72 -5 17 -3 41 -1
54 4 23 10 23 10 -4 10 -19 1 -28 7 -31 24 -2 12 -5 15 -6 6z"/>
<path d="M9014 4988 c-3 -4 -19 -8 -36 -8 -25 0 -28 -3 -19 -14 12 -15 51 -10
51 6 0 5 4 7 10 3 12 -7 60 5 60 15 0 11 -59 9 -66 -2z"/>
<path d="M9100 4989 c-11 -7 -5 -9 23 -6 21 3 41 8 44 11 11 10 -51 6 -67 -5z"/>
<path d="M6932 4981 c2 -18 -4 -22 -17 -11 -9 7 -19 10 -23 6 -11 -12 25 -33
55 -31 35 1 39 17 8 31 -13 7 -24 9 -23 5z"/>
<path d="M6690 4967 c0 -9 4 -18 9 -21 5 -4 8 1 7 9 -3 21 -16 31 -16 12z"/>
<path d="M8412 4964 c-14 -15 -7 -17 22 -5 15 6 16 9 5 13 -8 3 -20 -1 -27 -8z"/>
<path d="M8335 4960 c-3 -5 -1 -10 4 -10 6 0 11 5 11 10 0 6 -2 10 -4 10 -3 0
-8 -4 -11 -10z"/>
<path d="M8545 4960 c-4 -6 3 -10 14 -10 25 0 27 6 6 13 -8 4 -17 2 -20 -3z"/>
<path d="M9210 4939 c0 -5 5 -7 10 -4 6 3 10 8 10 11 0 2 -4 4 -10 4 -5 0 -10
-5 -10 -11z"/>
<path d="M9651 4928 c-9 -14 -20 -19 -36 -16 -20 4 -35 -7 -35 -27 0 -7 85 9
91 17 3 5 13 6 21 3 19 -8 33 11 17 21 -8 4 -9 3 -5 -4 12 -20 -12 -13 -26 7
-14 19 -14 19 -27 -1z"/>
<path d="M6715 4922 c-11 -30 43 -59 60 -32 3 6 2 10 -4 10 -6 0 -8 6 -5 14 3
9 -4 15 -20 18 -16 3 -27 0 -31 -10z"/>
<path d="M7178 4933 c6 -2 18 -2 25 0 6 3 1 5 -13 5 -14 0 -19 -2 -12 -5z"/>
<path d="M7230 4936 c0 -2 7 -6 15 -10 8 -3 15 -1 15 4 0 6 -7 10 -15 10 -8 0
-15 -2 -15 -4z"/>
<path d="M9455 4930 c-3 -5 -1 -10 4 -10 6 0 11 5 11 10 0 6 -2 10 -4 10 -3 0
-8 -4 -11 -10z"/>
<path d="M6595 4920 c-3 -5 1 -10 10 -10 9 0 13 5 10 10 -3 6 -8 10 -10 10 -2
0 -7 -4 -10 -10z"/>
<path d="M7630 4904 c-24 -9 -29 -13 -14 -13 11 -1 29 -8 40 -16 10 -8 26 -14
34 -14 10 0 8 5 -7 16 -28 19 -29 30 -5 36 11 3 12 5 2 5 -8 0 -31 -6 -50 -14z"/>
<path d="M6643 4892 c-8 -14 -13 -15 -26 -4 -9 8 -18 9 -21 3 -3 -5 0 -12 6
-14 7 -3 5 -6 -6 -6 -11 -1 -17 -4 -14 -7 8 -7 86 14 93 25 2 5 -1 11 -8 14
-7 3 -18 -2 -24 -11z"/>
<path d="M7280 4900 c-9 -6 -10 -10 -3 -10 6 0 15 5 18 10 8 12 4 12 -15 0z"/>
<path d="M8687 4903 c-4 -3 -7 -11 -7 -17 0 -6 5 -5 12 2 6 6 9 14 7 17 -3 3
-9 2 -12 -2z"/>
<path d="M7026 4892 c-3 -6 -1 -14 5 -17 15 -10 25 3 12 16 -7 7 -13 7 -17 1z"/>
<path d="M7355 4890 c3 -5 8 -10 11 -10 2 0 4 5 4 10 0 6 -5 10 -11 10 -5 0
-7 -4 -4 -10z"/>
<path d="M7968 4893 c7 -3 16 -2 19 1 4 3 -2 6 -13 5 -11 0 -14 -3 -6 -6z"/>
<path d="M9180 4890 c0 -13 18 -22 24 -11 3 5 -1 11 -9 15 -8 3 -15 1 -15 -4z"/>
<path d="M8646 4874 c-11 -8 -16 -14 -10 -14 13 0 39 18 34 24 -3 2 -14 -2
-24 -10z"/>
<path d="M9013 4875 c0 -9 4 -14 9 -13 5 2 10 8 10 13 0 5 -5 11 -10 13 -5 1
-9 -4 -9 -13z"/>
<path d="M9100 4875 c0 -8 7 -15 15 -15 8 0 13 -6 11 -12 -1 -7 -1 -10 1 -5 3
4 12 7 20 7 13 0 13 3 3 15 -7 9 -19 14 -27 11 -8 -3 -11 -1 -8 4 3 6 1 10 -4
10 -6 0 -11 -7 -11 -15z"/>
<path d="M9690 4879 c0 -5 5 -7 10 -4 6 3 10 8 10 11 0 2 -4 4 -10 4 -5 0 -10
-5 -10 -11z"/>
<path d="M7498 4873 c7 -3 16 -2 19 1 4 3 -2 6 -13 5 -11 0 -14 -3 -6 -6z"/>
<path d="M7852 4871 c4 -13 18 -16 19 -4 0 4 -5 9 -11 12 -7 2 -11 -2 -8 -8z"/>
<path d="M8806 4850 c-16 -17 -25 -34 -21 -38 3 -4 12 1 19 10 7 10 15 15 18
13 3 -3 10 6 16 20 15 34 3 32 -32 -5z"/>
<path d="M8870 4869 c0 -5 5 -7 10 -4 6 3 10 8 10 11 0 2 -4 4 -10 4 -5 0 -10
-5 -10 -11z"/>
<path d="M7778 4862 c-10 -2 -18 -8 -18 -13 0 -11 11 -11 30 1 18 11 11 18
-12 12z"/>
<path d="M6760 4849 c0 -5 5 -7 10 -4 6 3 10 8 10 11 0 2 -4 4 -10 4 -5 0 -10
-5 -10 -11z"/>
<path d="M8670 4851 c0 -5 5 -13 10 -16 6 -3 10 -2 10 4 0 5 -4 13 -10 16 -5
3 -10 2 -10 -4z"/>
<path d="M6853 4842 c-8 -5 -4 -15 12 -35 25 -28 42 -37 29 -14 -4 6 2 3 13
-8 11 -11 19 -23 16 -27 -7 -14 8 -9 23 7 14 13 14 15 0 15 -9 0 -16 5 -16 11
0 5 -13 15 -29 20 -17 6 -31 17 -33 25 -2 7 -8 10 -15 6z"/>
<path d="M7885 4840 c-3 -5 1 -10 10 -10 9 0 13 5 10 10 -3 6 -8 10 -10 10 -2
0 -7 -4 -10 -10z"/>
<path d="M9023 4836 c-24 -11 -29 -21 -14 -30 5 -3 16 5 25 19 9 14 15 24 14
24 -2 -1 -13 -6 -25 -13z"/>
<path d="M6495 4820 c-8 -13 5 -13 25 0 13 8 13 10 -2 10 -9 0 -20 -4 -23 -10z"/>
<path d="M7370 4820 c0 -5 5 -10 11 -10 5 0 7 5 4 10 -3 6 -8 10 -11 10 -2 0
-4 -4 -4 -10z"/>
<path d="M7400 4820 c0 -16 28 -32 35 -20 4 6 4 14 1 18 -10 9 -36 11 -36 2z"/>
<path d="M5774 4794 c-4 -14 1 -55 10 -92 9 -37 16 -78 16 -92 0 -15 5 -31 10
-36 7 -7 4 -18 -10 -34 -11 -13 -20 -25 -20 -26 0 -15 46 -104 53 -104 5 0 6
8 3 17 -13 33 -19 103 -9 103 5 0 14 -19 20 -42 6 -24 33 -133 60 -243 58
-231 71 -287 118 -525 37 -185 49 -211 99 -209 11 0 15 3 8 6 -6 2 -10 9 -6
14 8 14 24 11 24 -6 0 -8 9 -15 20 -15 11 0 20 7 20 15 0 8 -3 15 -7 15 -5 0
-8 24 -8 52 0 51 -1 53 -30 58 -60 11 -92 40 -103 93 -7 38 -6 51 5 63 8 8 19
14 24 14 5 0 9 7 9 15 0 9 -9 15 -24 15 -19 0 -27 9 -41 42 -25 63 -125 514
-125 564 0 41 11 56 25 34 3 -5 14 -10 23 -10 14 0 14 2 1 13 -13 10 -37 59
-70 142 -4 11 -10 32 -13 47 -4 19 -11 26 -21 22 -16 -7 -18 3 -15 67 1 29 -3
37 -19 42 -16 4 -23 -1 -27 -19z"/>
<path d="M7466 4805 c-3 -8 -1 -15 4 -15 6 0 10 7 10 15 0 8 -2 15 -4 15 -2 0
-6 -7 -10 -15z"/>
<path d="M7929 4803 c-13 -16 -12 -17 4 -4 9 7 17 15 17 17 0 8 -8 3 -21 -13z"/>
<path d="M8567 4797 c-3 -8 -1 -20 4 -28 6 -10 9 -7 9 14 0 29 -5 35 -13 14z"/>
<path d="M8970 4802 c0 -7 -7 -12 -15 -12 -9 0 -12 -6 -8 -17 4 -11 3 -14 -5
-9 -7 4 -12 14 -12 23 0 13 -3 13 -26 -2 -22 -14 -28 -15 -35 -4 -7 11 -9 10
-9 -3 0 -10 -4 -18 -9 -18 -11 0 -26 -39 -18 -46 7 -8 67 30 67 43 0 6 5 15
12 19 7 5 9 1 6 -13 -8 -31 30 -22 48 12 8 15 12 30 9 33 -3 3 -5 0 -5 -6z"/>
<path d="M9624 4791 c3 -29 21 -39 29 -16 4 9 1 15 -7 15 -8 0 -17 6 -20 13
-2 6 -3 1 -2 -12z"/>
<path d="M8630 4789 c0 -5 5 -7 10 -4 6 3 10 8 10 11 0 2 -4 4 -10 4 -5 0 -10
-5 -10 -11z"/>
<path d="M6831 4775 c-1 -15 10 -26 35 -37 35 -16 35 -16 18 3 -9 10 -23 19
-30 19 -7 0 -15 8 -17 18 -4 14 -5 13 -6 -3z"/>
<path d="M7985 4780 c3 -5 8 -10 11 -10 2 0 4 5 4 10 0 6 -5 10 -11 10 -5 0
-7 -4 -4 -10z"/>
<path d="M8260 4770 c-6 -11 -8 -20 -6 -20 3 0 10 9 16 20 6 11 8 20 6 20 -3
0 -10 -9 -16 -20z"/>
<path d="M8740 4771 c0 -6 5 -13 10 -16 6 -3 10 1 10 9 0 9 -4 16 -10 16 -5 0
-10 -4 -10 -9z"/>
<path d="M8600 4746 c9 -24 -6 -76 -22 -76 -14 0 -9 23 10 44 17 21 17 21 -4
4 -11 -10 -25 -18 -31 -18 -6 0 -13 -6 -16 -13 -6 -15 40 -40 49 -26 3 5 13 5
25 -1 13 -7 19 -7 19 0 0 5 -6 10 -13 10 -8 0 -14 7 -14 15 0 12 3 12 16 2 10
-8 13 -9 8 0 -4 6 -3 14 3 18 5 3 15 16 21 27 10 19 9 20 -10 15 -12 -3 -19
-2 -16 3 3 4 -2 11 -11 14 -23 9 -24 8 -14 -18z"/>
<path d="M9720 4750 c0 -11 5 -20 10 -20 6 0 10 9 10 20 0 11 -4 20 -10 20 -5
0 -10 -9 -10 -20z"/>
<path d="M8692 4729 c12 -15 25 -26 30 -23 13 8 -9 41 -31 47 -20 5 -19 4 1
-24z"/>
<path d="M8165 4740 c-8 -13 5 -13 25 0 13 8 13 10 -2 10 -9 0 -20 -4 -23 -10z"/>
<path d="M8535 4740 c3 -5 11 -10 16 -10 6 0 7 5 4 10 -3 6 -11 10 -16 10 -6
0 -7 -4 -4 -10z"/>
<path d="M9624 4724 c28 -25 30 -25 43 -8 18 24 0 42 -23 23 -13 -11 -18 -11
-21 -1 -3 6 -10 12 -16 12 -7 0 1 -12 17 -26z"/>
<path d="M6587 4733 c-14 -14 -6 -23 21 -22 16 0 21 3 12 6 -8 3 -18 10 -21
15 -3 4 -8 5 -12 1z"/>
<path d="M6800 4736 c0 -2 7 -9 15 -16 13 -11 14 -10 9 4 -5 14 -24 23 -24 12z"/>
<path d="M8486 4727 c3 -10 9 -15 12 -12 3 3 0 11 -7 18 -10 9 -11 8 -5 -6z"/>
<path d="M8790 4730 c0 -5 5 -10 10 -10 6 0 10 5 10 10 0 6 -4 10 -10 10 -5 0
-10 -4 -10 -10z"/>
<path d="M8950 4731 c0 -6 -9 -11 -21 -11 -11 0 -17 -5 -14 -10 4 -6 11 -7 17
-4 6 4 19 7 29 8 23 1 26 20 5 24 -9 2 -16 -1 -16 -7z"/>
<path d="M6950 4721 c0 -5 7 -11 15 -15 8 -3 15 -1 15 3 0 5 -7 11 -15 15 -8
3 -15 1 -15 -3z"/>
<path d="M7230 4709 c0 -11 4 -18 10 -14 5 3 7 12 3 20 -7 21 -13 19 -13 -6z"/>
<path d="M8052 4709 c-7 -11 -18 -17 -23 -13 -6 4 -15 0 -20 -7 -15 -23 -10
-30 11 -17 14 9 25 10 38 2 19 -11 52 -8 52 6 0 4 -8 6 -19 3 -22 -6 -39 16
-21 27 7 4 8 10 3 13 -5 3 -15 -3 -21 -14z"/>
<path d="M9590 4721 c0 -6 4 -13 10 -16 6 -3 7 1 4 9 -7 18 -14 21 -14 7z"/>
<path d="M9745 4720 c-3 -5 -1 -10 4 -10 6 0 11 5 11 10 0 6 -2 10 -4 10 -3 0
-8 -4 -11 -10z"/>
<path d="M9003 4706 c4 -10 1 -13 -7 -10 -8 3 -17 1 -20 -4 -3 -5 9 -9 28 -9
35 1 40 20 9 31 -10 4 -13 2 -10 -8z"/>
<path d="M6840 4700 c0 -5 5 -10 11 -10 5 0 7 5 4 10 -3 6 -8 10 -11 10 -2 0
-4 -4 -4 -10z"/>
<path d="M6912 4687 c7 -15 7 -22 -3 -28 -9 -6 -2 -8 21 -8 19 1 27 3 18 6
-10 2 -18 9 -18 15 0 5 7 8 15 4 12 -4 13 -2 3 14 -7 10 -20 18 -29 17 -14 -1
-15 -5 -7 -20z"/>
<path d="M8210 4702 c0 -12 19 -26 26 -19 2 2 -2 10 -11 17 -9 8 -15 8 -15 2z"/>
<path d="M8663 4703 c-15 -5 -18 -33 -4 -33 5 0 11 9 14 20 3 11 4 20 4 19 -1
0 -8 -3 -14 -6z"/>
<path d="M7225 4670 c-3 -5 -1 -10 4 -10 6 0 11 5 11 10 0 6 -2 10 -4 10 -3 0
-8 -4 -11 -10z"/>
<path d="M9610 4670 c0 -5 5 -10 10 -10 6 0 10 5 10 10 0 6 -4 10 -10 10 -5 0
-10 -4 -10 -10z"/>
<path d="M6982 4661 c-11 -7 -10 -10 3 -15 22 -8 22 -8 22 9 0 17 -6 18 -25 6z"/>
<path d="M8166 4648 c4 -13 0 -18 -13 -18 -15 0 -14 -2 5 -16 12 -8 20 -19 17
-24 -3 -4 4 -10 15 -13 11 -3 23 -1 26 4 3 5 -2 9 -10 9 -22 0 -20 17 2 23 14
4 14 6 -5 12 -18 6 -21 11 -13 25 8 15 6 18 -10 17 -14 -1 -18 -6 -14 -19z"/>
<path d="M8970 4660 c0 -10 41 -21 52 -14 18 11 6 23 -22 22 -16 -1 -30 -4
-30 -8z"/>
<path d="M7025 4650 c3 -5 10 -10 16 -10 5 0 9 5 9 10 0 6 -7 10 -16 10 -8 0
-12 -4 -9 -10z"/>
<path d="M8343 4647 c-25 -11 -31 -27 -9 -27 14 0 42 28 35 34 -2 2 -14 -1
-26 -7z"/>
<path d="M5404 4624 c-10 -39 4 -172 21 -207 8 -17 15 -36 15 -42 0 -7 7 -18
15 -25 8 -7 23 -38 32 -69 l17 -56 9 84 c6 55 6 90 -1 105 -6 11 -18 59 -27
106 -10 56 -23 92 -37 107 -28 30 -36 29 -44 -3z"/>
<path d="M7250 4635 c7 -8 16 -15 21 -15 5 0 9 7 9 15 0 9 -9 15 -21 15 -18 0
-19 -2 -9 -15z"/>
<path d="M8100 4629 c0 -5 5 -7 10 -4 6 3 10 8 10 11 0 2 -4 4 -10 4 -5 0 -10
-5 -10 -11z"/>
<path d="M8235 4620 c3 -5 13 -10 21 -10 8 0 12 5 9 10 -3 6 -13 10 -21 10 -8
0 -12 -4 -9 -10z"/>
<path d="M9735 4620 c-3 -4 6 -10 20 -12 14 -3 25 -2 25 2 0 11 -39 20 -45 10z"/>
<path d="M8570 4599 c0 -5 5 -7 10 -4 6 3 10 8 10 11 0 2 -4 4 -10 4 -5 0 -10
-5 -10 -11z"/>
<path d="M8385 4591 c3 -6 10 -9 15 -6 4 3 11 0 13 -5 3 -6 4 -5 3 2 -1 7 -11
15 -21 16 -11 3 -15 0 -10 -7z"/>
<path d="M6563 4571 c-3 -14 -17 -22 -44 -26 -23 -4 -45 -16 -54 -28 -13 -19
-20 -17 -16 6 0 4 -4 7 -10 7 -6 0 -9 -8 -7 -17 3 -16 14 -18 93 -15 98 4 346
-14 410 -29 22 -5 61 -11 87 -14 26 -2 74 -14 107 -25 65 -22 126 -27 116 -10
-4 6 -12 10 -18 9 -15 -3 -63 9 -96 22 -32 13 -107 29 -151 32 -19 1 -41 10
-48 19 -7 10 -23 23 -35 30 -20 10 -21 10 -8 -5 12 -15 11 -17 -8 -17 -12 0
-38 7 -57 15 -20 8 -40 13 -44 10 -4 -3 -10 2 -14 10 -3 8 -12 12 -21 9 -8 -4
-21 -2 -28 4 -6 5 -21 7 -32 5 -11 -2 -35 -5 -52 -5 -18 -1 -33 -5 -33 -9 0
-5 -7 -6 -15 -3 -11 5 -12 11 -4 25 7 13 6 19 -2 19 -6 0 -13 -9 -16 -19z"/>
<path d="M7230 4574 c0 -9 7 -14 17 -12 25 5 28 28 4 28 -12 0 -21 -6 -21 -16z"/>
<path d="M7430 4570 c0 -5 5 -10 11 -10 5 0 7 5 4 10 -3 6 -8 10 -11 10 -2 0
-4 -4 -4 -10z"/>
<path d="M9310 4570 c0 -5 5 -10 11 -10 5 0 7 5 4 10 -3 6 -8 10 -11 10 -2 0
-4 -4 -4 -10z"/>
<path d="M7510 4550 c0 -5 5 -10 10 -10 6 0 10 5 10 10 0 6 -4 10 -10 10 -5 0
-10 -4 -10 -10z"/>
<path d="M7576 4545 c-3 -8 -1 -15 4 -15 13 0 22 18 11 24 -5 3 -11 -1 -15 -9z"/>
<path d="M7955 4530 c4 -6 11 -8 16 -5 14 9 11 15 -7 15 -8 0 -12 -5 -9 -10z"/>
<path d="M7970 4492 c0 -12 19 -26 26 -19 2 2 -2 10 -11 17 -9 8 -15 8 -15 2z"/>
<path d="M7906 4468 c3 -5 10 -6 15 -3 13 9 11 12 -6 12 -8 0 -12 -4 -9 -9z"/>
<path d="M8230 4470 c0 -5 5 -10 11 -10 5 0 7 5 4 10 -3 6 -8 10 -11 10 -2 0
-4 -4 -4 -10z"/>
<path d="M7997 4436 c-4 -10 -1 -13 8 -9 8 3 12 9 9 14 -7 12 -11 11 -17 -5z"/>
<path d="M9419 4417 c5 -5 17 -5 28 2 16 9 15 10 -9 9 -16 -2 -24 -6 -19 -11z"/>
<path d="M8146 4412 c-3 -6 -1 -14 5 -17 15 -10 25 3 12 16 -7 7 -13 7 -17 1z"/>
<path d="M8105 4400 c3 -5 10 -10 16 -10 5 0 9 5 9 10 0 6 -7 10 -16 10 -8 0
-12 -4 -9 -10z"/>
<path d="M8291 4397 c-7 -9 -20 -13 -29 -10 -15 6 -15 5 1 -14 9 -11 14 -23
10 -26 -3 -4 -1 -7 6 -7 8 0 10 7 6 19 -4 14 -1 19 9 17 9 -1 19 -5 22 -9 14
-13 26 -7 15 7 -10 12 -8 15 6 19 11 3 9 3 -4 2 -12 -1 -24 2 -26 8 -1 5 -9 2
-16 -6z"/>
<path d="M9497 4390 c-43 -23 -47 -24 -84 -8 -39 15 -54 18 -47 7 5 -8 -26
-14 -50 -10 -5 1 -6 -5 -2 -14 4 -13 1 -15 -13 -10 -11 3 -26 -1 -37 -12 -17
-17 -17 -17 -11 0 4 11 2 17 -8 17 -8 0 -15 -6 -15 -13 0 -8 -6 -14 -12 -15
-77 -6 -112 -12 -117 -20 -8 -12 -68 -32 -75 -25 -3 3 -12 1 -19 -5 -8 -7 -17
-9 -20 -5 -4 3 -12 1 -19 -4 -20 -16 -108 -26 -108 -13 0 6 -10 2 -22 -9 -12
-12 -36 -24 -55 -27 -18 -3 -33 -10 -33 -15 0 -11 50 -1 65 12 5 5 20 9 33 9
13 0 50 7 81 15 31 8 79 16 106 19 28 3 63 10 78 15 26 10 27 9 17 -10 -6 -11
-18 -23 -26 -26 -8 -3 -14 -13 -14 -22 0 -14 -2 -14 -10 -1 -5 8 -10 10 -10 5
0 -6 -14 -16 -30 -23 -17 -8 -27 -18 -24 -24 3 -5 -4 -12 -15 -15 -20 -5 -20
-6 -4 -19 16 -12 16 -13 1 -8 -16 6 -46 -31 -34 -43 3 -3 8 1 12 10 4 12 14
15 34 11 15 -3 40 0 56 8 16 8 37 13 48 10 16 -3 18 0 12 23 -6 22 -4 26 8 22
10 -4 13 -1 10 7 -3 9 6 18 25 24 17 6 31 14 31 17 0 3 -5 3 -12 -1 -8 -5 -9
-2 -5 10 6 14 3 15 -13 6 -11 -6 -20 -8 -20 -5 0 10 28 35 39 35 6 0 11 5 11
10 0 6 6 10 13 9 6 -1 19 0 27 4 45 17 113 25 193 25 79 -1 88 -3 71 -15 -16
-12 -13 -13 25 -8 24 3 47 7 50 10 4 2 25 0 47 -5 72 -15 184 -22 184 -10 0 5
-9 10 -20 10 -11 0 -20 5 -20 11 0 8 -5 8 -15 -1 -10 -9 -15 -9 -15 -1 0 6 -7
11 -15 11 -8 0 -15 4 -15 9 0 5 -13 16 -28 24 -24 12 -31 12 -50 -1 -13 -8
-26 -12 -29 -8 -4 4 3 9 15 13 12 3 22 9 22 13 0 10 -20 8 -37 -3 -8 -5 -13
-3 -13 6 0 7 -11 19 -25 25 -32 15 -24 16 -68 -8z m203 -76 c0 -2 -7 -4 -15
-4 -8 0 -15 4 -15 10 0 5 7 7 15 4 8 -4 15 -8 15 -10z"/>
<path d="M9696 4394 c-8 -22 -4 -25 11 -9 7 8 9 16 4 19 -5 3 -12 -1 -15 -10z"/>
<path d="M5576 4377 c-3 -13 -1 -50 4 -81 10 -63 10 -78 -4 -87 -4 -4 -3 -16
3 -27 15 -28 14 -59 -1 -65 -10 -3 -10 -12 1 -42 10 -30 11 -39 1 -45 -8 -5
-10 -17 -7 -30 4 -14 0 -29 -9 -38 -14 -14 -14 -16 0 -24 9 -5 16 -15 16 -22
0 -21 32 -44 72 -51 39 -7 62 -26 72 -62 4 -13 12 -23 17 -23 5 0 9 -5 9 -10
0 -6 -6 -9 -12 -8 -7 2 -12 -3 -10 -11 2 -10 -6 -12 -28 -9 l-31 5 25 -24 c14
-13 26 -30 26 -37 0 -17 38 -51 47 -43 3 4 9 40 12 79 7 78 22 109 88 178 27
30 32 42 29 70 -2 20 2 43 10 55 20 28 17 78 -10 179 -25 90 -35 111 -43 89
-6 -18 -23 -16 -23 2 0 11 -12 14 -50 12 -27 0 -50 -5 -50 -10 0 -4 11 -43 25
-86 23 -71 45 -112 105 -196 18 -25 16 -24 -10 5 -84 93 -105 125 -171 260
-23 49 -76 120 -89 120 -4 0 -10 -10 -14 -23z"/>
<path d="M8185 4390 c6 -9 1 -11 -37 -14 -7 -1 -16 -5 -20 -11 -10 -14 -30
-13 -53 2 -22 15 -55 17 -55 4 0 -14 40 -23 105 -25 53 -2 60 -4 58 -22 -1
-18 -1 -18 12 -1 11 16 14 16 28 2 26 -25 32 -17 7 10 -13 14 -18 25 -12 25 7
0 12 5 12 12 0 9 -3 9 -12 0 -18 -18 -30 -14 -23 8 4 12 2 20 -5 20 -6 0 -8
-4 -5 -10z"/>
<path d="M5834 4374 c3 -9 6 -22 6 -30 0 -8 4 -14 8 -14 5 0 7 14 4 30 -2 17
-9 30 -14 30 -6 0 -7 -7 -4 -16z"/>
<path d="M5660 4367 c0 -14 31 -47 43 -47 14 0 6 26 -13 43 -24 21 -30 21 -30
4z"/>
<path d="M9168 4373 c7 -3 16 -2 19 1 4 3 -2 6 -13 5 -11 0 -14 -3 -6 -6z"/>
<path d="M9731 4363 c0 -11 3 -13 6 -5 2 6 9 10 14 6 5 -3 9 0 9 5 0 6 -7 11
-15 11 -8 0 -15 -8 -14 -17z"/>
<path d="M6720 4355 c7 -8 22 -15 34 -16 11 0 16 -3 10 -5 -7 -3 -39 1 -73 9
-43 10 -61 11 -61 3 0 -6 -4 -5 -9 3 -7 11 -10 10 -15 -5 -6 -20 -56 -50 -90
-56 -11 -2 -21 -9 -24 -16 -2 -8 2 -10 15 -5 17 6 16 4 -2 -17 -21 -25 -11
-21 38 13 35 24 132 33 202 19 52 -11 155 -44 215 -69 19 -9 51 -22 70 -30 19
-8 49 -21 65 -28 17 -7 58 -24 92 -36 40 -15 58 -26 50 -32 -8 -5 -5 -6 8 -3
11 3 34 -2 50 -9 25 -13 26 -14 5 -9 -23 6 -22 4 10 -25 26 -23 42 -30 62 -26
33 5 47 -20 15 -29 -28 -7 -19 -15 20 -18 18 -1 30 -5 27 -9 -4 -7 31 -19 59
-19 10 0 15 5 12 10 -3 6 1 10 9 10 9 0 16 5 16 10 0 6 7 10 16 10 8 0 12 5 8
11 -4 7 1 9 15 5 11 -3 30 -9 41 -12 11 -3 18 -10 14 -15 -3 -6 5 -7 22 -3 21
6 25 4 18 -7 -4 -8 -8 -23 -9 -34 0 -16 -6 -19 -32 -17 -38 4 -46 -7 -27 -33
14 -18 14 -18 14 3 0 12 5 22 10 22 6 0 10 -9 10 -20 0 -17 3 -19 19 -10 25
13 38 -4 21 -25 -7 -8 -10 -26 -8 -39 4 -19 1 -22 -14 -18 -11 3 -17 10 -14
18 6 16 -20 19 -29 4 -4 -6 -13 -7 -24 -1 -10 6 -23 6 -32 1 -7 -5 -41 -7 -74
-4 -95 7 -141 8 -152 1 -10 -7 -73 10 -83 22 -21 25 -41 33 -55 21 -12 -10
-14 -8 -10 9 3 16 -1 21 -18 22 -19 0 -19 1 -4 7 16 7 16 9 2 30 -18 24 -83
34 -69 10 5 -9 2 -8 -10 1 -13 11 -14 16 -4 22 9 6 6 9 -10 9 -13 0 -21 -4
-18 -9 4 -5 -3 -7 -14 -4 -11 3 -20 8 -20 12 0 4 -22 7 -50 6 -34 -1 -50 3
-50 12 0 7 -6 10 -14 7 -8 -3 -27 1 -43 9 -17 9 -36 11 -48 7 -11 -4 -33 -6
-50 -5 -16 1 -20 0 -7 -2 12 -2 22 -9 22 -14 0 -21 -57 -2 -63 22 -3 11 -14
19 -26 19 -15 0 -19 -4 -14 -17 3 -10 3 -15 -2 -11 -4 4 -14 3 -21 -3 -11 -9
-112 -37 -136 -39 -17 0 -7 38 15 57 33 31 60 42 98 42 110 -1 199 -8 218 -18
22 -12 45 -6 36 9 -3 4 5 6 17 3 23 -5 23 -5 -1 13 -14 10 -33 18 -42 19 -10
1 -27 9 -38 19 -12 11 -21 14 -26 7 -3 -6 -13 -11 -21 -11 -9 0 -12 5 -8 12 5
7 2 9 -8 5 -18 -6 -91 16 -82 26 10 10 -70 -4 -80 -14 -6 -6 -6 -9 0 -9 6 0
11 -7 11 -15 0 -8 -4 -15 -9 -15 -4 0 -8 -7 -8 -15 0 -8 -5 -15 -11 -15 -5 0
-7 4 -4 10 4 6 -1 7 -12 3 -10 -4 -22 -12 -26 -20 -4 -7 -15 -13 -23 -13 -8 0
-13 -4 -10 -9 3 -5 -4 -11 -15 -14 -13 -4 -18 -10 -14 -17 4 -7 1 -17 -6 -22
-11 -7 -11 -11 -1 -15 18 -7 15 -24 -4 -21 -9 2 -20 -7 -25 -19 -5 -14 -5 -23
1 -23 6 0 10 -5 10 -10 0 -7 -6 -7 -19 0 -25 13 -41 13 -21 0 8 -5 15 -15 15
-22 1 -17 -18 -29 -26 -17 -7 12 -59 1 -59 -12 0 -5 9 -9 20 -9 11 0 20 -5 20
-11 0 -7 -11 -8 -31 -4 -21 5 -29 4 -25 -3 3 -6 1 -12 -6 -14 -9 -3 -9 -6 0
-12 7 -4 12 -2 12 3 0 6 5 11 10 11 6 0 10 -7 10 -15 0 -8 7 -15 15 -15 12 0
14 -7 9 -27 -9 -34 -33 -73 -45 -73 -5 0 -9 -6 -9 -14 0 -7 -10 -20 -22 -29
-13 -8 -20 -18 -15 -23 4 -4 23 8 42 26 19 18 37 31 40 28 9 -8 -97 -118 -107
-112 -11 7 3 -29 16 -39 11 -9 -166 1 -190 10 -19 7 -19 -71 0 -86 8 -7 40
-15 70 -18 l56 -6 0 -116 c0 -64 7 -147 15 -186 20 -95 72 -200 131 -262 76
-82 73 -77 58 -104 -10 -18 -13 -20 -14 -6 0 28 -20 19 -21 -10 -1 -16 -2 -41
-3 -57 -1 -16 3 -34 9 -40 12 -13 15 -87 3 -80 -11 7 -10 -24 2 -47 13 -24 2
-25 -17 -1 -13 15 -13 15 -4 -5 6 -12 8 -36 4 -53 -6 -34 14 -61 29 -37 4 6
10 -1 14 -18 5 -19 3 -30 -4 -33 -8 -2 -9 -9 -2 -21 5 -10 7 -32 5 -49 -3 -22
1 -34 13 -41 15 -9 15 -11 -1 -29 -25 -27 -3 -45 41 -33 l31 9 -4 -56 c-2 -37
-8 -60 -19 -68 -15 -10 -15 -12 -1 -18 9 -3 13 -2 10 4 -3 6 -1 10 4 10 15 0
14 -47 -1 -53 -7 -2 -10 -7 -7 -11 3 -3 16 4 28 16 l24 21 18 -24 c24 -31 24
-43 -1 -36 -11 3 -20 4 -20 3 0 -2 5 -18 11 -35 10 -27 15 -32 34 -27 17 4 27
-1 39 -19 16 -24 16 -25 -4 -25 -13 0 -24 -10 -30 -27 -6 -16 -15 -36 -20 -45
-13 -22 -13 -48 0 -48 10 0 35 41 32 53 -3 11 16 8 24 -4 3 -6 1 -16 -5 -22
-16 -16 -14 -27 7 -28 11 0 12 -2 4 -6 -10 -4 -10 -8 0 -21 11 -14 10 -15 -6
-9 -14 6 -17 4 -12 -8 3 -8 1 -15 -4 -15 -6 0 -10 -9 -10 -21 0 -15 -5 -19
-16 -15 -8 3 -13 2 -9 -3 3 -5 0 -11 -6 -13 -9 -3 -9 -9 -1 -25 10 -17 9 -22
-5 -27 -13 -5 -14 -9 -4 -19 9 -9 14 -9 19 -1 10 16 64 26 81 15 15 -10 7 -46
-8 -37 -5 3 -12 -1 -15 -10 -3 -9 -11 -12 -18 -8 -9 5 -9 3 1 -9 19 -24 -4
-22 -28 2 -19 19 -61 37 -61 27 0 -11 43 -45 52 -40 12 8 10 -10 -4 -24 -16
-16 -10 -20 51 -35 35 -8 50 -16 46 -25 -3 -7 0 -10 5 -7 6 3 10 0 10 -9 0 -8
-6 -16 -12 -19 -10 -3 -10 -7 1 -20 12 -15 11 -17 -3 -17 -9 0 -16 7 -16 15 0
9 -7 18 -15 21 -8 4 -15 18 -16 33 l-1 26 -8 -25 c-5 -14 -8 -18 -9 -9 -1 9
-8 22 -16 29 -12 10 -15 10 -15 -4 0 -9 -5 -16 -11 -16 -6 0 -9 6 -6 14 3 8
-1 20 -9 26 -12 11 -14 7 -14 -23 0 -27 5 -37 20 -42 20 -6 28 -39 11 -49 -5
-4 -8 -14 -6 -24 2 -9 4 -21 4 -25 1 -5 5 -5 11 -2 6 3 7 -1 4 -9 -4 -9 -1
-16 6 -16 7 0 10 -7 6 -16 -3 -9 3 -27 14 -41 11 -14 20 -32 20 -39 0 -21 47
-119 64 -133 8 -7 12 -20 9 -28 -4 -10 -2 -14 5 -9 6 3 13 2 17 -4 3 -5 -2
-10 -11 -10 -16 0 -16 -2 1 -20 11 -12 20 -27 21 -34 4 -29 36 -65 52 -59 11
3 13 2 6 -4 -18 -13 12 -104 37 -110 26 -7 14 -23 -17 -23 -58 0 -86 -46 -44
-72 27 -17 25 -44 -2 -53 -68 -22 -119 -5 -99 34 15 27 14 31 -9 31 -11 0 -19
-3 -19 -8 1 -4 0 -11 -1 -17 -1 -5 -1 -25 0 -44 1 -22 -2 -31 -9 -27 -6 4 -11
16 -11 27 0 15 -5 19 -18 15 -12 -4 -26 1 -37 14 -10 11 -25 20 -34 20 -11 -1
-8 -8 13 -26 22 -20 26 -28 17 -37 -10 -9 -15 -8 -22 6 -6 9 -14 15 -20 12 -5
-4 -9 10 -9 29 0 35 -13 55 -25 36 -3 -5 0 -10 7 -11 7 0 -3 -7 -22 -14 -46
-18 -50 -18 -50 0 0 8 4 15 9 15 4 0 6 11 4 24 -4 18 -10 22 -30 20 -35 -4
-36 -7 -13 -37 23 -28 26 -57 8 -57 -7 0 -4 -7 7 -16 17 -13 18 -16 5 -24 -8
-5 -21 -10 -27 -10 -7 0 -13 -4 -13 -10 0 -5 7 -10 15 -10 10 0 15 -10 15 -29
0 -16 6 -31 15 -35 8 -3 15 -14 15 -25 0 -36 -27 -12 -39 34 -11 46 -44 77
-54 51 -8 -20 8 -37 26 -30 11 4 17 1 17 -9 0 -20 -13 -28 -49 -29 -23 -1 -27
-5 -23 -20 3 -11 -3 -24 -14 -32 -15 -12 -16 -16 -5 -30 16 -19 12 -20 -23 -6
-24 9 -25 12 -19 62 3 29 12 57 19 61 20 12 17 25 -7 32 -26 9 -21 36 11 52
33 16 43 7 35 -33 -3 -19 -2 -34 3 -34 14 0 21 25 15 52 -5 19 -3 21 8 11 22
-22 46 -15 52 13 6 34 -18 94 -38 94 -16 0 -22 50 -7 64 7 8 8 13 11 41 0 8 6
15 12 15 6 0 9 -9 6 -20 -3 -11 -1 -20 4 -20 5 0 9 7 9 16 0 8 5 12 10 9 6 -3
10 3 10 13 0 15 -5 19 -20 15 -21 -5 -25 3 -14 31 7 18 39 22 49 6 11 -17 23
-11 18 9 -3 14 2 21 18 26 22 7 22 8 4 21 -16 12 -20 11 -35 -6 -9 -11 -20
-17 -24 -13 -12 12 -6 23 18 34 19 9 40 52 35 72 0 1 8 25 19 52 14 36 17 58
11 80 -5 17 -5 33 1 39 6 6 10 50 10 98 0 77 -2 88 -17 88 -15 0 -18 10 -19
65 -1 71 -6 84 -27 67 -17 -14 -27 -6 -27 21 0 11 -3 18 -6 14 -9 -9 -43 30
-50 58 -3 14 -10 25 -15 25 -5 0 -9 7 -9 15 0 8 -9 24 -20 35 -11 11 -20 32
-20 48 0 15 -7 38 -15 52 -18 31 -30 57 -44 93 l-11 29 -63 -54 c-73 -64 -182
-146 -287 -215 -155 -102 -199 -136 -193 -146 3 -6 1 -7 -6 -3 -6 4 -24 -2
-39 -13 -15 -12 -76 -58 -137 -103 -60 -44 -148 -116 -195 -158 -47 -42 -114
-98 -149 -125 -35 -27 -119 -98 -186 -159 -125 -115 -213 -172 -460 -301 -60
-32 -141 -77 -180 -100 -38 -23 -133 -75 -210 -115 -77 -40 -203 -111 -280
-158 -77 -47 -196 -116 -265 -155 -69 -38 -127 -71 -129 -73 -2 -2 865 -4
1927 -4 l1932 0 1 23 0 22 11 -22 11 -23 1343 0 1344 0 0 865 c0 476 -2 865
-4 865 -6 0 -50 -74 -51 -85 0 -5 -8 -19 -18 -30 -10 -10 -15 -25 -13 -32 3
-7 2 -13 -3 -13 -14 0 -63 -109 -57 -125 3 -8 2 -15 -2 -15 -9 0 -32 -59 -32
-83 0 -9 -3 -17 -7 -17 -5 0 -16 -27 -27 -60 -10 -33 -23 -60 -28 -60 -5 0 -8
-6 -6 -12 3 -7 -2 -19 -9 -26 -8 -8 -11 -22 -8 -33 8 -23 -12 -62 -27 -53 -6
4 -8 -1 -4 -13 9 -27 -1 -50 -25 -56 -20 -6 -43 -52 -35 -74 3 -7 -1 -13 -9
-13 -20 0 -19 13 5 61 12 23 18 48 15 60 -4 11 -2 19 6 19 17 0 38 31 39 57 0
12 5 25 11 28 6 4 8 14 5 22 -4 9 1 22 11 29 17 13 17 14 0 25 -9 5 -15 15
-11 21 4 6 10 5 15 -3 6 -10 9 -7 9 10 0 21 2 22 16 10 15 -12 16 -10 10 19
-6 26 -5 31 7 26 10 -4 15 2 15 21 0 17 -5 24 -13 21 -18 -6 -28 21 -15 42 8
14 9 14 10 2 0 -13 1 -13 10 0 5 9 5 19 -2 27 -7 9 -7 21 0 40 14 35 13 84 -1
101 -7 9 -7 16 -1 20 14 9 -7 47 -25 47 -8 0 -16 6 -19 14 -3 10 3 13 26 9 28
-4 30 -2 35 34 3 20 1 53 -3 73 -5 20 -4 33 1 29 10 -6 12 3 13 63 1 41 -8 56
-17 31 -3 -9 -13 -4 -29 13 -19 20 -24 34 -20 58 5 35 13 38 36 15 15 -14 16
-14 16 5 0 12 -5 21 -11 21 -8 0 -10 12 -6 36 6 36 -17 79 -36 67 -5 -3 -13 0
-17 7 -9 15 -15 -2 -25 -72 -3 -26 -12 -49 -20 -52 -8 -3 -15 -1 -15 5 0 14
-30 43 -37 36 -3 -4 -2 -14 2 -24 4 -10 8 -31 7 -48 0 -73 -14 -243 -21 -277
-5 -20 -6 -49 -3 -63 4 -26 3 -26 -18 -15 -18 10 -22 9 -18 -2 2 -7 14 -17 26
-23 17 -7 21 -17 19 -47 -1 -21 -6 -38 -11 -38 -4 0 -5 -7 -2 -16 8 -21 -4
-65 -15 -58 -16 10 -30 -6 -16 -20 9 -10 14 -11 19 -2 6 8 8 7 8 -2 0 -7 -6
-15 -13 -17 -8 -4 -11 -21 -9 -50 2 -25 0 -45 -5 -45 -5 0 -10 -6 -11 -12 -3
-39 -19 -71 -31 -64 -4 3 -6 18 -4 33 3 21 -3 36 -24 58 -16 17 -34 38 -42 48
-12 15 -12 17 2 11 9 -3 23 -17 32 -30 14 -22 44 -36 31 -15 -4 5 0 12 6 14 8
3 6 6 -4 6 -10 1 -18 8 -18 17 0 8 5 12 10 9 20 -12 32 7 15 25 -14 15 -14 20
-2 32 12 12 12 17 -5 38 -14 18 -18 33 -13 57 5 28 3 35 -17 42 -20 8 -21 10
-5 16 19 8 25 79 7 90 -17 10 -11 35 8 36 15 0 14 2 -4 15 -18 13 -21 22 -17
60 3 34 1 44 -10 44 -8 0 -17 11 -19 25 -4 17 -1 25 8 25 21 0 16 14 -8 25
-14 6 -22 17 -20 29 2 11 -1 15 -7 11 -6 -3 -12 -1 -12 4 -3 21 -4 26 -13 39
-4 7 -15 11 -25 7 -9 -3 -1 9 17 27 17 19 32 38 32 43 0 6 -5 3 -10 -5 -9 -13
-10 -13 -9 0 1 8 4 26 8 40 6 19 2 30 -16 48 -13 12 -29 22 -34 22 -31 0 -44
49 -20 73 18 18 12 30 -13 25 -23 -5 -30 11 -13 28 11 11 8 34 -3 34 -6 0 -13
-13 -16 -29 -5 -25 -9 -28 -28 -22 -11 5 -27 6 -34 4 -10 -4 -12 3 -7 29 5 27
2 39 -20 62 -21 22 -31 27 -53 21 l-27 -7 23 20 c25 22 29 34 7 26 -9 -4 -15
0 -15 7 -1 10 -5 8 -15 -5 -17 -22 -38 -12 -30 15 7 22 6 23 -30 9 -26 -10
-27 -9 -21 14 4 18 1 25 -14 29 -11 3 -20 12 -20 21 0 9 -5 16 -11 16 -5 0 -3
10 5 22 9 12 16 29 16 38 -1 12 -3 11 -11 -3 -17 -28 -29 -9 -13 21 7 15 14
34 14 42 0 10 3 11 8 4 4 -7 32 -12 64 -12 34 1 64 -5 74 -12 13 -11 19 -11
36 -1 17 11 22 10 29 -1 7 -10 9 -10 9 0 0 6 5 12 11 12 5 0 7 -5 3 -11 -4 -8
0 -9 15 -4 16 5 21 2 21 -12 0 -10 4 -14 8 -8 4 6 17 11 29 12 17 2 21 -1 16
-15 -4 -12 0 -11 17 6 12 13 29 21 37 18 8 -3 17 -6 19 -6 2 0 4 -10 4 -22 1
-21 2 -21 11 -5 6 9 14 15 18 12 5 -2 14 2 21 11 11 12 15 12 22 2 8 -10 11
-10 15 0 8 20 26 14 20 -8 -3 -14 -1 -18 6 -13 7 4 20 8 30 9 9 1 24 2 33 3 8
0 26 25 39 54 23 49 24 50 19 16 -3 -20 -1 -39 4 -43 14 -8 59 37 54 54 -4 13
-3 13 11 2 13 -11 16 -10 20 5 3 10 3 0 1 -22 l-5 -40 19 25 c11 13 19 28 16
31 -8 13 7 37 27 42 10 3 23 17 29 32 l10 27 21 -24 20 -23 -5 31 c-4 26 0 33
27 49 75 44 97 68 97 108 l0 37 -40 -40 c-45 -45 -120 -88 -120 -68 0 7 -11
14 -25 14 -29 2 -33 -10 -7 -26 15 -9 14 -10 -6 -5 -15 4 -22 2 -20 -5 5 -20
-52 -35 -75 -21 -14 9 -22 10 -30 2 -8 -8 -7 -11 3 -11 31 0 -7 -19 -50 -25
-30 -4 -40 -3 -31 3 10 7 10 11 1 17 -7 4 -16 2 -20 -5 -4 -6 -11 -12 -16 -13
-5 -1 -8 -6 -6 -11 2 -5 -6 -6 -18 -3 -11 3 -23 1 -26 -4 -3 -5 -16 -9 -29 -9
-18 0 -22 4 -18 19 3 10 0 22 -6 25 -6 4 -9 1 -5 -7 6 -16 -10 -30 -36 -33 -8
-1 -24 -5 -35 -9 -16 -7 -18 -6 -7 6 18 20 15 28 -10 21 -17 -4 -20 -2 -14 13
6 16 4 16 -10 4 -10 -8 -12 -15 -5 -17 13 -4 15 -32 3 -32 -4 0 -14 6 -21 13
-10 9 -15 9 -18 0 -2 -7 -12 -9 -20 -6 -14 6 -14 7 3 14 17 6 17 8 2 14 -10 4
-24 -1 -36 -13 -20 -20 -95 -37 -114 -26 -5 4 -27 8 -47 9 -52 4 -121 34 -115
50 7 16 -26 28 -51 19 -12 -5 -16 -4 -12 3 4 6 0 13 -8 16 -7 3 -21 20 -30 36
-13 27 -13 30 0 25 8 -4 15 -2 15 4 0 6 -5 12 -12 14 -6 2 -8 10 -4 17 14 21
37 -7 29 -37 l-6 -26 34 24 c19 14 36 28 37 33 2 4 10 3 18 -4 8 -7 18 -9 22
-5 4 4 -2 14 -12 22 -11 7 -17 16 -14 19 7 7 43 -26 51 -47 3 -10 12 -18 19
-19 43 -3 58 -8 90 -32 41 -31 59 -35 34 -8 -13 14 -14 20 -4 23 18 6 58 -3
58 -13 0 -13 28 -11 36 3 4 7 3 8 -4 4 -7 -4 -12 -1 -12 8 0 9 6 16 14 16 9 0
12 7 9 20 -4 16 -2 19 13 14 11 -4 24 -10 29 -14 6 -4 35 -6 66 -6 37 1 56 -3
56 -10 0 -7 -7 -10 -15 -6 -10 3 -13 1 -8 -6 11 -17 53 -15 60 4 9 23 8 24
-11 17 -10 -4 3 14 29 40 25 26 54 47 62 47 19 0 21 17 4 22 -15 5 19 77 40
85 6 3 21 25 31 49 20 44 36 52 90 44 13 -1 13 1 2 14 -16 19 -1 22 17 4 7 -7
12 -8 12 -2 0 5 -5 15 -12 22 -9 9 -9 12 1 12 7 0 9 5 5 12 -4 7 -3 8 4 4 7
-4 23 4 36 17 16 16 27 21 30 14 2 -7 5 3 5 21 1 17 6 32 12 32 6 0 9 -6 6
-13 -2 -6 3 -19 11 -27 14 -13 15 -12 9 3 -9 25 6 21 33 -8 13 -14 33 -26 44
-26 18 -1 18 -2 3 -6 -19 -5 -19 -24 0 -30 18 -6 21 29 6 59 -7 15 -13 30 -13
33 0 17 -1 18 -10 5 -8 -12 -10 -11 -10 7 0 24 19 41 29 26 3 -6 15 -7 26 -3
19 7 19 7 -3 19 -12 7 -21 17 -20 24 1 7 -10 35 -26 63 -23 42 -32 51 -49 47
-14 -3 -10 2 10 12 18 10 30 21 27 26 -7 12 3 11 26 -1 12 -6 21 -6 25 -1 3 6
14 8 25 6 15 -3 20 2 20 17 0 18 -5 20 -45 15 -45 -6 -45 -6 -26 14 11 12 21
30 24 40 5 17 3 18 -11 7 -12 -10 -14 -10 -8 0 4 6 2 12 -3 12 -6 0 -11 5 -11
10 0 6 15 4 36 -5 47 -19 44 -20 44 18 0 27 -6 36 -26 45 -16 8 -31 9 -43 3
-10 -6 -33 -6 -57 -1 -135 29 -443 32 -874 6 -71 -4 -77 -4 -35 4 244 45 538
60 753 41 182 -17 180 -17 196 -30 14 -12 46 -5 46 11 0 5 4 6 10 3 6 -3 7 1
4 9 -3 9 -11 16 -16 16 -6 0 -5 7 2 15 7 9 10 18 8 21 -3 3 -15 -8 -26 -24
-17 -23 -27 -28 -51 -24 -17 2 -28 9 -25 14 3 5 18 7 33 4 23 -6 24 -5 9 7
-15 12 -15 14 0 24 15 10 13 12 -10 12 -16 1 -28 6 -28 12 0 6 9 8 23 4 18 -6
20 -5 10 6 -10 10 -21 10 -50 1 l-38 -11 24 19 c12 11 27 17 32 14 5 -3 9 6 9
20 0 24 -2 25 -61 24 -33 0 -65 4 -72 11 -15 15 -30 14 -22 -1 4 -7 0 -5 -8 5
-8 9 -25 18 -38 18 -18 1 -19 3 -6 6 15 4 16 7 5 20 -12 14 -11 15 9 5 27 -15
56 -16 48 -2 -3 6 -1 10 4 10 6 0 11 5 11 11 0 5 -4 7 -10 4 -14 -9 -12 7 4
27 10 13 22 16 49 11 21 -3 37 -10 37 -16 0 -6 5 -5 13 2 10 8 17 7 27 -2 10
-10 12 -8 6 7 -5 16 -4 17 9 6 13 -11 14 -10 9 5 -6 14 -3 16 12 11 15 -4 20
-1 20 13 0 11 -5 17 -13 14 -7 -3 -13 0 -13 6 0 6 -4 11 -9 11 -6 0 -8 -9 -6
-20 3 -14 -2 -20 -15 -20 -10 0 -20 -6 -23 -12 -2 -7 -8 -10 -12 -6 -5 5 1 16
13 26 23 20 20 34 -4 25 -8 -3 -14 -1 -14 4 0 4 -9 14 -20 20 -16 11 -18 10
-13 -3 5 -14 3 -15 -16 -4 -13 6 -30 9 -38 5 -10 -3 -26 4 -40 17 -23 21 -25
22 -34 5 -12 -21 -31 -23 -23 -2 7 18 -12 20 -19 3 -4 -10 -8 -10 -15 1 -7 9
-11 10 -17 2 -4 -7 -16 -9 -27 -5 -15 4 -18 3 -13 -7 6 -9 2 -11 -13 -7 -12 4
-25 2 -28 -3 -3 -5 -9 -7 -14 -4 -4 3 -5 -7 -1 -22 7 -25 11 -27 45 -25 26 3
36 0 32 -7 -4 -6 0 -11 9 -11 13 0 14 -2 3 -14 -9 -10 -18 -11 -30 -5 -12 6
-25 6 -37 -1 -28 -14 -39 -12 -18 4 19 14 7 33 -13 21 -5 -3 -10 -1 -10 4 0
20 -26 11 -27 -8 -1 -14 3 -18 15 -14 13 4 14 3 3 -5 -11 -8 -10 -12 5 -21 26
-15 12 -14 -18 2 -14 7 -23 18 -20 25 2 7 -2 10 -12 6 -9 -3 -13 -11 -9 -17 4
-7 0 -8 -12 -3 -16 6 -16 4 -4 -10 13 -16 12 -16 -8 -6 -34 18 -63 15 -63 -7
0 -21 -38 -35 -64 -25 -12 5 -15 2 -10 -9 5 -13 0 -15 -21 -11 -17 3 -24 1
-20 -6 3 -5 1 -10 -5 -10 -6 0 -10 -8 -8 -17 2 -11 -6 -23 -20 -30 -32 -17
-42 -16 -42 2 0 19 -2 19 -48 -1 -20 -8 -52 -17 -69 -18 -18 -2 -39 -9 -48
-16 -8 -7 -22 -9 -32 -5 -31 13 -53 12 -53 -3 0 -12 -3 -12 -16 -1 -13 10 -17
10 -24 0 -5 -8 -10 -9 -14 -3 -4 7 -16 7 -35 -1 -17 -6 -28 -15 -25 -19 3 -4
1 -8 -5 -8 -5 0 -13 5 -17 11 -3 6 -9 7 -13 3 -3 -5 -15 -16 -25 -24 -18 -13
-19 -13 -14 1 6 16 -3 19 -52 19 -19 0 -21 3 -12 12 17 17 15 37 -3 34 -8 -1
-18 -5 -21 -9 -13 -12 -24 -7 -18 8 4 10 0 15 -15 15 -23 0 -26 7 -12 29 5 7
13 11 19 7 6 -3 14 -1 18 5 5 8 3 9 -6 4 -10 -6 -12 -4 -7 8 12 31 -17 18 -42
-18 -14 -21 -28 -32 -35 -28 -10 7 -15 9 -34 12 -5 0 -14 11 -21 24 -6 12 -9
14 -7 5 6 -21 -5 -30 -24 -18 -9 5 -19 5 -27 -1 -9 -8 -14 -4 -19 14 -3 16
-11 24 -19 21 -7 -3 -34 16 -60 42 -36 37 -48 45 -55 34 -6 -9 -5 -17 2 -21 6
-4 2 -10 -11 -14 -11 -3 -25 -4 -30 -1 -14 9 -41 -4 -41 -20 0 -8 -7 -14 -15
-14 -8 0 -15 5 -15 11 0 5 -4 7 -10 4 -5 -3 2 -17 16 -30 24 -22 25 -26 11
-40 -22 -22 -40 -19 -32 5 3 11 2 20 -4 20 -5 0 -13 -9 -16 -21 -5 -16 -10
-18 -20 -9 -8 7 -19 9 -25 5 -5 -3 -10 -1 -10 4 0 6 5 11 12 11 6 0 9 2 6 5
-3 3 -17 -1 -31 -8 -15 -8 -24 -17 -20 -21 4 -4 -1 -4 -11 0 -12 5 -16 14 -13
31 4 22 3 22 -23 -8 -18 -22 -29 -29 -34 -21 -9 15 2 52 15 52 5 0 9 5 9 10 0
6 -8 10 -17 8 -14 -2 -18 4 -18 30 0 17 -3 32 -7 32 -5 0 -8 -6 -8 -13 0 -8
-9 -22 -20 -32 -25 -22 -26 -36 -2 -28 14 5 14 3 -2 -9 -11 -9 -28 -13 -38
-10 -23 6 -24 -16 0 -25 28 -11 46 -47 19 -41 -6 2 -26 -7 -43 -19 -24 -17
-34 -20 -44 -10 -10 10 -11 7 -7 -14 6 -23 4 -25 -23 -23 -17 1 -33 -3 -36 -8
-4 -6 -10 -5 -15 3 -14 22 -11 26 19 34 25 7 25 8 7 15 -19 8 -19 9 2 9 12 1
25 5 28 11 7 11 -39 25 -53 16 -5 -3 -9 1 -9 9 0 8 7 15 14 15 8 0 12 4 8 9
-9 16 8 20 51 12 35 -7 40 -5 41 11 2 15 -2 16 -18 8 -16 -9 -19 -7 -19 13 0
14 -6 24 -15 24 -8 0 -15 -4 -15 -8 0 -4 -9 -5 -20 -2 -12 3 -20 13 -19 22 1
9 0 19 -1 24 -6 17 -8 29 -9 54 -1 31 -13 24 -16 -9 -1 -13 -3 -29 -4 -35 -2
-18 -42 -16 -69 3 -12 8 -22 12 -22 8 0 -5 -5 -3 -12 4 -17 17 -31 15 -25 -2
4 -10 1 -13 -9 -9 -9 3 -12 13 -9 23 6 18 -19 35 -35 25 -5 -3 -11 -1 -15 5
-4 6 -11 8 -16 5 -5 -4 -9 -1 -9 4 0 6 -11 11 -25 11 -15 0 -25 6 -25 15 0 9
-6 12 -17 8 -11 -4 -14 -3 -9 5 5 8 -1 12 -18 12 -14 0 -28 5 -31 10 -3 6 0
10 7 10 9 0 9 3 2 8 -6 4 -13 15 -17 25 -3 9 -12 17 -19 16 -10 0 -10 -2 0 -6
21 -8 13 -23 -12 -23 -14 0 -31 7 -40 15 -15 15 -33 4 -22 -14 3 -4 -6 -6 -19
-3 -14 2 -28 8 -30 13 -3 4 -11 6 -18 3 -7 -2 -22 4 -32 16 -22 24 -29 25 -50
3 -14 -14 -18 -14 -26 -2 -6 9 -4 15 6 17 17 4 20 22 4 22 -6 0 -20 10 -31 23
-11 12 -17 16 -13 10 4 -8 0 -13 -10 -13 -8 0 -18 7 -21 15 -4 10 -13 13 -24
10 -10 -3 -21 -1 -25 5 -4 7 -12 7 -26 -1 -27 -14 -49 -5 -49 20 0 10 -7 21
-14 24 -10 4 -13 1 -9 -9 4 -12 1 -13 -23 -3 -16 6 -42 12 -57 15 -24 3 -27 1
-17 -11z m-60 -30 c-7 -9 -15 -13 -17 -11 -7 7 7 26 19 26 6 0 6 -6 -2 -15z
m350 -45 c0 -5 -5 -10 -11 -10 -5 0 -7 5 -4 10 3 6 8 10 11 10 2 0 4 -4 4 -10z
m100 -76 c0 -2 -9 0 -20 6 -11 6 -20 13 -20 16 0 2 9 0 20 -6 11 -6 20 -13 20
-16z m2575 -84 c10 -11 13 -20 7 -20 -6 0 -16 9 -22 20 -6 11 -9 20 -7 20 2 0
12 -9 22 -20z m-3055 -10 c0 -5 -5 -10 -11 -10 -5 0 -7 5 -4 10 3 6 8 10 11
10 2 0 4 -4 4 -10z m3163 -30 c3 -11 2 -20 -3 -20 -4 0 -10 9 -13 20 -3 11 -2
20 3 20 4 0 10 -9 13 -20z m-93 -41 c0 -14 -27 -10 -33 5 -4 10 0 12 14 9 10
-3 19 -9 19 -14z m-65 -17 c-2 -3 -12 -1 -22 2 -15 6 -15 9 -3 16 13 8 35 -8
25 -18z m-94 -9 c13 -16 12 -17 -3 -4 -10 7 -18 15 -18 17 0 8 8 3 21 -13z
m-1326 -33 c3 -5 1 -10 -4 -10 -6 0 -11 5 -11 10 0 6 2 10 4 10 3 0 8 -4 11
-10z m-1380 -10 c3 -5 1 -10 -4 -10 -6 0 -11 5 -11 10 0 6 2 10 4 10 3 0 8 -4
11 -10z m-28 -16 c-3 -3 -12 -4 -19 -1 -8 3 -5 6 6 6 11 1 17 -2 13 -5z m-272
-34 c3 -5 1 -10 -4 -10 -6 0 -11 5 -11 10 0 6 2 10 4 10 3 0 8 -4 11 -10z
m-38 -16 c-3 -3 -12 -4 -19 -1 -8 3 -5 6 6 6 11 1 17 -2 13 -5z m1647 -29 c-4
-8 -16 -15 -28 -15 -20 1 -20 1 4 15 31 18 30 18 24 0z m-214 -5 c0 -5 -4 -10
-10 -10 -5 0 -10 5 -10 10 0 6 5 10 10 10 6 0 10 -4 10 -10z m-495 -165 c77
-13 144 -25 149 -25 5 0 7 -2 4 -5 -2 -3 -67 2 -144 10 -201 21 -613 30 -754
16 -103 -11 -245 -38 -292 -56 -10 -4 -18 -3 -18 3 0 14 84 48 155 62 114 24
211 29 485 25 238 -4 294 -8 415 -30z m2191 6 c-8 -13 57 -21 71 -9 9 7 16 3
24 -16 12 -26 29 -35 29 -16 0 5 6 7 14 4 11 -4 9 -14 -11 -50 -19 -33 -31
-44 -49 -44 -17 0 -23 4 -18 12 5 8 2 9 -9 5 -9 -3 -19 -2 -22 2 -3 5 2 12 11
15 8 3 12 11 9 17 -4 6 -13 8 -21 5 -9 -3 -11 0 -7 11 5 12 3 14 -7 8 -17 -11
-39 20 -33 45 3 11 10 20 15 20 5 0 7 -4 4 -9z m159 -21 c3 -6 -1 -7 -9 -4
-18 7 -21 14 -7 14 6 0 13 -4 16 -10z m8 -102 c-2 -5 5 -8 16 -8 14 0 19 5 15
15 -4 8 -2 15 4 15 5 0 12 -9 15 -20 4 -15 -2 -24 -23 -35 -33 -17 -60 -19
-60 -5 0 5 -8 7 -17 3 -17 -6 -17 -5 0 14 9 11 17 24 17 29 0 6 6 16 12 22 10
10 14 9 19 -5 4 -10 5 -21 2 -25z m-3397 -40 c19 -14 22 -56 7 -78 -8 -11 -12
-24 -9 -28 8 -13 -11 -35 -22 -28 -6 4 -9 14 -6 24 5 15 4 15 -6 -1 -21 -33
-6 -44 53 -39 58 5 102 -11 94 -32 -3 -7 15 -34 39 -59 24 -26 44 -49 44 -52
0 -3 -10 -10 -22 -15 -21 -8 -21 -9 7 -8 67 3 83 -1 78 -21 -6 -24 24 -36 43
-16 9 8 18 15 21 15 4 0 3 -3 0 -6 -9 -9 52 -64 72 -64 9 0 22 -9 29 -20 10
-16 10 -20 0 -20 -9 0 -9 -3 2 -9 8 -6 18 -7 22 -5 4 3 8 0 8 -5 0 -6 -6 -11
-12 -11 -10 0 -10 -2 0 -9 7 -4 36 -9 64 -10 36 -1 59 -8 81 -25 26 -20 35
-22 65 -14 19 5 47 7 62 4 15 -2 31 -1 36 3 5 5 27 3 49 -4 39 -12 39 -12 13
-19 -15 -5 -35 -3 -47 4 -16 8 -21 8 -21 -1 0 -6 -7 -9 -15 -6 -8 4 -17 2 -21
-4 -3 -6 -22 -8 -43 -4 -28 5 -41 2 -51 -9 -7 -9 -24 -16 -39 -16 -19 -1 -22
-3 -11 -9 22 -13 182 -22 175 -11 -4 6 1 10 9 10 20 0 30 -17 14 -23 -8 -4 -7
-6 4 -6 9 -1 20 4 23 9 3 6 1 10 -4 10 -6 0 -11 5 -11 10 0 6 17 10 38 10 33
-1 35 -2 20 -14 -24 -18 -23 -29 3 -21 16 5 19 4 14 -5 -6 -9 -4 -11 6 -4 8 5
22 7 33 5 10 -1 15 2 12 7 -7 11 16 22 45 22 10 0 19 5 19 10 0 6 7 10 15 10
9 0 28 11 43 25 15 14 31 25 36 25 5 0 18 7 28 17 10 9 21 13 24 10 4 -4 -4
-15 -17 -26 -13 -11 -19 -20 -13 -21 6 0 17 7 24 14 8 10 18 12 33 7 24 -9 47
-4 47 10 0 4 -7 6 -14 3 -25 -10 -44 16 -32 43 6 12 14 23 19 23 11 0 8 -25
-5 -38 -7 -7 -8 -12 -4 -12 4 0 16 10 25 22 10 12 23 18 29 14 15 -9 16 -36 1
-36 -5 0 -7 -5 -4 -10 3 -6 -3 -22 -14 -36 -23 -30 -28 -49 -8 -38 6 4 4 -2
-6 -13 -18 -21 -9 -41 12 -28 19 11 20 -13 1 -32 -10 -12 -16 -23 -13 -27 3
-3 -2 -8 -11 -12 -9 -3 -13 -11 -9 -17 4 -6 0 -8 -10 -4 -9 3 -19 2 -22 -3 -3
-4 1 -10 7 -13 8 -3 1 -9 -14 -16 -16 -6 -28 -15 -28 -20 0 -5 -9 -7 -20 -4
-11 3 -20 0 -20 -6 0 -6 6 -11 13 -11 18 -1 -38 -29 -102 -52 -49 -17 -232
-40 -316 -40 -128 0 -207 5 -185 12 24 8 24 8 -7 9 -17 1 -39 4 -49 8 -13 5
-15 3 -9 -7 6 -10 1 -12 -25 -7 -18 4 -40 7 -49 7 -14 0 -14 2 -1 10 11 7 6 8
-16 4 -35 -7 -144 22 -144 38 0 6 -3 9 -6 5 -6 -6 -18 2 -58 38 -12 11 -35 27
-50 34 -15 8 -44 33 -65 56 -96 104 -135 228 -129 413 3 103 6 124 31 177 45
96 78 118 123 83z m2037 8 c-23 -13 -31 -15 -131 -28 -46 -5 -86 -8 -89 -4
-10 9 0 15 37 20 19 3 47 8 63 12 17 4 27 2 27 -5 0 -6 5 -11 11 -11 6 0 9 6
6 13 -3 8 10 12 45 13 39 0 45 -2 31 -10z m607 -24 c0 -7 8 -15 18 -19 9 -3
29 -15 44 -25 53 -36 150 -15 207 46 32 34 41 33 41 -4 0 -46 -32 -72 -85 -70
-15 1 -65 -32 -65 -43 0 -8 -4 -7 -10 3 -6 10 -10 11 -10 3 0 -17 -37 -16 -43
1 -3 7 -26 17 -52 20 -75 12 -151 53 -150 81 1 16 16 36 24 31 4 -3 13 -1 20
3 16 10 61 -10 61 -27z m-1931 -72 c48 -13 67 -9 136 30 28 15 59 26 70 24 11
-2 23 2 26 8 5 7 14 6 28 -4 20 -14 20 -16 4 -30 -10 -9 -47 -28 -83 -42 -62
-26 -68 -26 -154 -16 -112 14 -160 32 -153 60 3 11 1 20 -4 20 -5 0 -9 -8 -9
-17 -1 -17 -2 -17 -15 1 -12 16 -12 20 1 33 7 8 14 19 14 25 0 6 22 -10 49
-35 30 -28 65 -50 90 -57z m2425 35 c-9 -14 -21 -25 -27 -25 -6 0 0 11 13 25
13 14 25 25 27 25 2 0 -4 -11 -13 -25z m-1220 -12 c6 -14 -2 -15 -76 -10 -46
4 -108 8 -138 8 l-55 2 45 7 c25 4 84 8 131 8 72 2 88 -1 93 -15z m1341 -33
c3 -5 1 -10 -4 -10 -6 0 -11 5 -11 10 0 6 2 10 4 10 3 0 8 -4 11 -10z m-75
-10 c0 -30 -110 -160 -136 -160 -8 0 -13 4 -10 9 9 14 -20 21 -33 8 -6 -6 -14
-7 -18 -3 -5 4 1 14 12 23 11 8 19 19 18 24 -2 5 1 8 5 7 8 -3 28 14 90 72 19
18 24 20 19 7 -9 -24 10 -22 23 3 11 21 30 27 30 10z m320 0 c0 -5 -2 -10 -4
-10 -3 0 -8 5 -11 10 -3 6 -1 10 4 10 6 0 11 -4 11 -10z m-1557 -46 c9 -3 15
-10 12 -15 -4 -5 -1 -9 5 -9 7 0 10 -7 6 -15 -3 -8 -1 -15 5 -15 6 0 8 -9 4
-20 -5 -14 -2 -18 8 -15 12 5 36 -29 33 -46 0 -3 5 -14 13 -23 8 -9 14 -37 13
-61 0 -26 5 -45 12 -48 11 -4 21 -34 26 -75 1 -4 9 -15 17 -24 12 -14 13 -18
3 -18 -10 0 -9 -5 3 -18 10 -10 14 -22 10 -26 -4 -4 -1 -11 7 -16 12 -7 11
-12 -5 -30 l-19 -21 28 7 c28 7 29 6 23 -26 -5 -24 -4 -31 6 -27 17 6 16 -59
-2 -93 -11 -22 -10 -21 14 5 14 17 24 23 22 15 -2 -8 2 -27 10 -42 7 -16 10
-28 6 -28 -5 0 0 -5 10 -11 9 -5 22 -7 27 -4 6 3 10 1 10 -5 0 -7 7 -7 23 1
25 14 80 23 59 10 -10 -6 -8 -10 10 -16 12 -4 27 -7 31 -6 5 1 6 -2 4 -6 -3
-5 -1 -19 4 -32 7 -16 14 -21 26 -17 23 9 9 -4 -19 -18 -13 -7 -23 -17 -23
-23 0 -6 -4 -15 -8 -20 -5 -4 -8 -3 -7 2 5 21 0 48 -7 41 -13 -13 -10 -51 5
-62 8 -6 12 -16 8 -22 -11 -17 -29 -15 -22 3 3 8 1 15 -4 15 -5 0 -15 7 -24
15 -8 9 -17 11 -21 6 -3 -6 4 -15 15 -21 13 -7 20 -21 20 -40 0 -16 6 -33 13
-37 8 -4 19 -17 25 -28 l11 -20 2 20 c0 15 4 12 15 -12 8 -18 19 -33 25 -33 6
0 9 -7 5 -15 -3 -8 -1 -15 4 -15 11 0 18 -22 25 -80 8 -61 -3 -120 -23 -127
-10 -3 -60 -26 -112 -51 -52 -26 -101 -46 -107 -46 -7 1 -13 -4 -13 -12 0 -7
-6 -11 -14 -8 -8 3 -17 0 -21 -5 -3 -6 -11 -9 -16 -5 -6 4 -6 11 2 20 8 10 8
14 0 14 -11 0 -15 -13 -11 -40 1 -8 -1 -12 -6 -8 -4 4 -13 0 -21 -10 -11 -13
-13 -13 -10 -2 7 24 -12 50 -36 50 -13 0 -28 5 -35 12 -9 9 -12 8 -12 -4 0 -9
10 -19 23 -22 18 -5 19 -8 7 -15 -28 -17 -35 -16 -35 4 0 12 -8 21 -20 23 -16
3 -17 1 -5 -7 10 -7 11 -11 3 -11 -7 0 -12 -5 -10 -11 1 -6 -4 -14 -12 -16
-10 -4 -11 1 -6 18 7 23 7 23 -12 7 -22 -20 -49 -23 -58 -8 -4 6 -11 8 -16 4
-5 -3 -7 -10 -4 -15 4 -5 -1 -9 -10 -9 -11 0 -15 -5 -11 -15 6 -17 -5 -20 -20
-5 -6 6 -19 5 -37 -5 -26 -13 -32 -11 -28 9 1 5 -4 4 -13 -3 -10 -8 -16 -9
-21 -1 -5 8 -11 8 -19 1 -10 -8 -18 -5 -31 9 -10 11 -24 20 -32 20 -8 0 -12 4
-8 9 3 5 1 12 -5 16 -5 3 -10 1 -10 -4 0 -6 -4 -11 -10 -11 -5 0 -7 7 -4 15 5
12 -2 14 -35 11 -30 -2 -45 2 -57 15 -21 24 -31 24 -37 2 -3 -14 -6 -12 -15
10 -7 16 -17 25 -23 21 -6 -3 -26 8 -44 26 -18 18 -38 29 -44 26 -6 -4 -11 -3
-11 3 0 5 -12 22 -26 38 -21 22 -27 25 -34 13 -7 -11 -10 -8 -10 14 0 24 -2
27 -15 16 -12 -10 -16 -9 -22 6 -8 21 -29 45 -34 39 -2 -2 -5 21 -5 50 -1 40
2 52 11 49 7 -3 16 -1 20 5 3 6 1 11 -5 11 -8 0 -10 9 -5 27 7 30 35 74 35 55
0 -10 5 -10 22 -1 18 10 24 8 35 -7 12 -16 13 -16 13 -1 0 25 12 21 42 -15 25
-31 27 -31 28 -11 0 13 9 28 20 35 11 7 20 20 20 28 0 9 8 22 19 29 17 12 17
17 5 58 -10 34 -11 44 -1 40 6 -2 12 -12 12 -22 0 -25 20 -30 22 -5 1 11 -12
33 -28 49 -20 20 -26 32 -17 37 6 4 19 -2 28 -14 10 -12 20 -19 22 -16 7 7 -3
53 -13 60 -5 3 -9 10 -9 16 0 6 11 1 25 -12 l25 -23 0 24 c0 19 2 21 10 9 8
-12 10 -10 10 8 0 13 4 21 9 18 5 -3 11 1 15 9 3 8 0 15 -6 15 -7 0 -5 7 4 18
16 17 18 104 4 149 -4 12 -3 24 2 27 5 3 7 35 6 72 -2 37 0 73 5 78 4 6 8 20
9 31 6 78 19 120 35 119 9 -1 15 2 12 6 -3 5 -1 11 5 15 6 4 8 11 5 16 -4 5
-2 9 3 9 6 0 17 18 26 40 10 24 23 40 33 41 81 5 116 9 120 12 4 4 84 -9 116
-19z m1301 17 c8 -13 -33 -141 -45 -141 -5 0 -15 -12 -21 -26 -14 -31 -77 -61
-89 -42 -6 9 -11 9 -22 0 -7 -7 -17 -9 -20 -5 -4 3 -7 1 -7 -6 0 -7 -5 -9 -11
-6 -6 4 -8 14 -5 22 3 8 1 11 -4 8 -6 -3 -10 1 -10 9 0 19 11 20 29 4 11 -11
13 -10 7 0 -4 7 -1 15 8 18 9 3 16 13 16 21 0 8 5 11 12 7 7 -4 8 -3 4 5 -8
12 65 91 84 91 6 0 10 5 10 11 0 5 -4 7 -10 4 -6 -3 -7 1 -4 9 7 19 16 20 31
5 13 -13 36 -3 28 12 -4 5 -2 9 4 9 5 0 12 -4 15 -9z m-525 -32 c12 -7 8 -8
-14 -5 -16 2 -36 5 -42 5 -7 1 -13 5 -13 10 0 11 46 4 69 -10z m131 1 c12 -8
11 -10 -7 -10 -13 0 -23 5 -23 10 0 13 11 13 30 0z m-1945 -10 c3 -5 2 -10 -4
-10 -5 0 -13 5 -16 10 -3 6 -2 10 4 10 5 0 13 -4 16 -10z m2073 -20 c-7 -11
-17 -20 -22 -20 -5 0 -1 9 9 20 10 11 20 20 22 20 2 0 -2 -9 -9 -20z m-48 -39
c0 -12 -20 -25 -27 -18 -7 7 6 27 18 27 5 0 9 -4 9 -9z m-2493 -23 c-3 -8 -6
-5 -6 6 -1 11 2 17 5 13 3 -3 4 -12 1 -19z m2333 12 c0 -5 -4 -10 -10 -10 -5
0 -10 5 -10 10 0 6 5 10 10 10 6 0 10 -4 10 -10z m-2142 -66 l-4 -29 -12 28
c-13 31 -7 56 10 39 5 -5 8 -22 6 -38z m46 37 c3 -5 -1 -12 -10 -15 -20 -8
-29 -1 -19 13 8 13 22 14 29 2z m2330 1 c2 -4 -4 -9 -15 -9 -10 -1 -19 2 -19
8 0 11 27 12 34 1z m-2514 -22 c0 -5 -2 -10 -4 -10 -3 0 -8 5 -11 10 -3 6 -1
10 4 10 6 0 11 -4 11 -10z m194 -15 c-4 -8 -8 -15 -10 -15 -2 0 -4 7 -4 15 0
8 4 15 10 15 5 0 7 -7 4 -15z m76 5 c0 -5 -4 -10 -10 -10 -5 0 -10 5 -10 10 0
6 5 10 10 10 6 0 10 -4 10 -10z m2227 4 c-3 -3 -12 -4 -19 -1 -8 3 -5 6 6 6
11 1 17 -2 13 -5z m-263 -49 c3 -9 0 -15 -9 -15 -9 0 -12 6 -9 15 4 8 7 15 9
15 2 0 5 -7 9 -15z m-2159 -26 c11 -17 -1 -21 -15 -4 -8 9 -8 15 -2 15 6 0 14
-5 17 -11z m85 -19 c0 -5 -7 -10 -15 -10 -8 0 -15 5 -15 10 0 6 7 10 15 10 8
0 15 -4 15 -10z m2388 -7 c-12 -14 -38 -18 -38 -5 0 13 7 18 29 18 15 0 17 -3
9 -13z m-63 -3 c3 -6 -1 -7 -9 -4 -18 7 -21 14 -7 14 6 0 13 -4 16 -10z
m-2235 -32 c0 -5 -6 -8 -12 -5 -7 2 -19 -3 -26 -12 -8 -9 -11 -10 -7 -3 3 6 1
12 -4 12 -6 0 -11 4 -11 10 0 5 7 7 15 4 8 -4 15 -1 15 5 0 6 7 8 15 5 8 -4
15 -11 15 -16z m2210 0 c0 -4 -4 -8 -9 -8 -6 0 -12 4 -15 8 -3 5 1 9 9 9 8 0
15 -4 15 -9z m51 -5 c0 -11 3 -13 6 -5 2 6 9 12 14 12 6 0 5 -8 -1 -20 -12
-22 -18 -24 -39 -11 -15 10 -8 41 9 41 5 0 10 -8 11 -17z m-2364 -15 c7 -6 18
-6 25 -2 10 5 10 4 2 -5 -12 -13 -57 -1 -69 18 -7 12 22 4 42 -11z m2203 8
c-18 -18 -70 -32 -70 -19 0 10 45 30 70 32 13 1 13 -1 0 -13z m-1990 -16 c0
-5 -5 -10 -11 -10 -5 0 -7 5 -4 10 3 6 8 10 11 10 2 0 4 -4 4 -10z m2060 -3
c14 -11 14 -14 -1 -29 -16 -15 -19 -15 -30 -2 -7 8 -19 12 -28 9 -9 -3 -5 4 8
15 27 23 31 24 51 7z m-2116 -11 c-21 -15 -30 -14 -19 3 3 6 14 11 23 11 13 0
13 -2 -4 -14z m46 -26 c-8 -5 -22 -10 -30 -10 -13 0 -13 1 0 10 8 5 22 10 30
10 13 0 13 -1 0 -10z m2224 -2 c-3 -4 10 -5 28 -1 18 3 31 3 28 0 -10 -10 -80
-16 -80 -7 0 5 -7 7 -15 4 -8 -4 -15 -2 -15 3 0 5 13 9 29 9 17 0 28 -3 25 -8z
m-614 -18 c-11 -8 -12 -12 -3 -18 7 -5 9 -13 3 -21 -4 -8 -5 -21 -2 -30 5 -14
3 -14 -11 -3 -9 8 -13 21 -10 30 5 14 2 14 -18 -3 -18 -15 -20 -16 -10 -2 7 9
10 17 5 17 -13 1 36 40 50 40 6 0 4 -5 -4 -10z m-1530 -15 c0 -8 -2 -15 -4
-15 -2 0 -6 7 -10 15 -3 8 -1 15 4 15 6 0 10 -7 10 -15z m-10 -24 c6 -2 -22
-21 -31 -21 -4 0 -9 6 -12 14 -5 11 16 15 43 7z m313 -4 c4 3 7 1 7 -6 0 -17
-32 -10 -38 9 -4 12 -3 13 10 3 8 -7 18 -10 21 -6z m1278 -4 c8 -9 9 -14 2
-10 -6 4 -13 1 -16 -5 -3 -7 -4 -3 -4 10 1 26 1 26 18 5z m506 -7 c-4 -10 -1
-13 9 -9 7 3 14 9 14 14 0 5 6 9 14 9 20 0 8 -40 -13 -41 -9 0 -25 -2 -35 -4
-11 -2 -27 0 -35 5 -13 8 -12 9 7 10 13 0 22 6 22 15 0 8 5 15 11 15 6 0 9 -7
6 -14z m-359 -38 c7 -7 12 -16 12 -20 0 -15 -15 -8 -28 12 -13 22 -3 27 16 8z
m52 -18 c0 -5 -2 -10 -4 -10 -3 0 -8 5 -11 10 -3 6 -1 10 4 10 6 0 11 -4 11
-10z m680 -159 c0 -6 -4 -13 -10 -16 -5 -3 -10 1 -10 9 0 9 5 16 10 16 6 0 10
-4 10 -9z m-2010 -95 c0 -5 -7 -3 -15 4 -8 7 -15 20 -15 28 0 13 3 12 15 -4 8
-10 15 -23 15 -28z m-308 -14 c16 -7 16 -10 3 -36 -18 -35 -18 -36 0 -36 8 0
15 7 15 16 0 15 22 44 34 44 3 0 3 -7 0 -15 -4 -8 -1 -22 6 -29 9 -12 7 -17
-12 -27 -22 -12 -22 -12 -3 -20 17 -6 17 -8 3 -8 -11 -1 -18 -9 -18 -22 0 -17
-5 -20 -25 -17 -13 3 -22 2 -20 -3 3 -4 1 -10 -5 -14 -6 -4 -7 -12 -4 -18 4
-7 4 -9 -1 -5 -4 4 -14 3 -22 -3 -10 -9 -13 -8 -13 1 0 8 -3 10 -6 7 -4 -4 -1
-14 6 -23 9 -10 10 -18 4 -22 -6 -4 -13 -15 -17 -24 -4 -11 -12 -15 -22 -12
-14 6 -19 -5 -18 -43 0 -6 -5 -9 -12 -7 -7 3 -15 -4 -18 -15 -4 -16 -13 -21
-36 -21 -31 0 -42 -14 -18 -23 22 -8 -3 -21 -38 -20 -19 1 -35 -3 -35 -8 0 -5
6 -9 14 -9 7 0 16 -8 18 -18 4 -13 -1 -18 -18 -20 -18 -1 -24 3 -24 19 0 20
-2 20 -22 7 -31 -21 -33 -37 -7 -47 l24 -8 -23 -7 c-13 -5 -26 -5 -29 -3 -8 9
-31 -17 -26 -29 2 -6 -3 -14 -11 -17 -10 -4 -16 -1 -16 9 0 8 -13 17 -30 21
-16 3 -30 9 -30 14 0 5 -5 9 -10 9 -7 0 -7 -6 0 -20 6 -11 18 -20 26 -20 8 0
13 -4 10 -9 -4 -5 0 -12 6 -15 7 -4 3 -4 -9 -2 -13 2 -26 0 -29 -5 -3 -5 -2
-9 3 -9 4 0 8 -11 8 -23 0 -23 0 -24 -25 -6 -14 9 -35 20 -48 24 -21 6 -22 5
-11 -14 18 -28 4 -38 -23 -15 l-22 19 17 -27 c17 -27 17 -28 -8 -34 -14 -3
-22 -10 -19 -16 3 -5 -2 -18 -11 -28 -10 -11 -15 -28 -12 -40 3 -13 0 -20 -9
-20 -7 0 -11 -6 -8 -14 3 -7 -2 -16 -10 -19 -26 -10 -18 -24 15 -25 39 -1 44
-6 30 -29 -6 -10 -11 -13 -11 -8 0 6 -7 -5 -15 -23 -17 -39 -39 -33 -30 8 4
20 2 29 -10 34 -9 3 -15 11 -13 18 1 7 -3 23 -10 35 -7 13 -11 39 -8 59 2 21
-3 53 -11 72 -8 19 -12 40 -9 48 3 7 1 16 -5 20 -6 3 -8 12 -5 20 3 8 1 14 -4
14 -6 0 -10 7 -10 15 0 8 6 12 14 9 10 -4 16 4 21 25 7 35 5 48 -10 43 -5 -2
-1 6 9 17 20 22 9 30 -12 9 -16 -16 -22 -7 -25 34 -2 19 -10 44 -18 56 -16 23
-14 82 3 82 5 0 7 4 4 9 -3 5 -7 29 -9 55 -4 39 -2 46 13 46 10 0 20 -7 24
-15 4 -11 13 -14 33 -9 37 9 37 9 23 35 -11 19 -10 21 4 16 9 -4 16 -1 16 6 0
7 16 13 38 14 33 1 78 8 92 13 3 1 8 2 13 1 4 -1 25 3 46 8 27 6 43 5 51 -3 9
-8 14 -8 17 2 3 6 9 10 14 6 5 -3 14 -2 19 1 17 11 134 14 151 4 12 -6 19 -4
22 5 4 9 14 12 26 9 13 -3 21 -1 21 7 0 7 8 10 20 7 14 -4 20 0 20 11 0 14 2
15 9 3 8 -12 13 -12 33 2 26 18 27 18 50 9z m1523 -2 c3 -5 -1 -10 -9 -10 -9
0 -16 5 -16 10 0 6 4 10 9 10 6 0 13 -4 16 -10z m-2018 -16 c-3 -3 -12 -4 -19
-1 -8 3 -5 6 6 6 11 1 17 -2 13 -5z m27 -19 c3 -9 0 -15 -9 -15 -9 0 -12 6 -9
15 4 8 7 15 9 15 2 0 5 -7 9 -15z m1976 -75 c0 -5 -2 -10 -4 -10 -3 0 -8 5
-11 10 -3 6 -1 10 4 10 6 0 11 -4 11 -10z m-1209 -42 c21 -23 23 -28 12 -28
-10 1 -46 50 -37 50 4 0 15 -10 25 -22z m-1361 -54 c0 -8 -4 -14 -10 -14 -5 0
-10 9 -10 21 0 11 5 17 10 14 6 -3 10 -13 10 -21z m40 -20 c0 -14 -4 -22 -10
-19 -5 3 -10 17 -10 31 0 14 4 22 10 19 6 -3 10 -17 10 -31z m15 -75 c-4 -11
-2 -19 4 -19 6 0 11 -4 11 -10 0 -16 -14 -11 -27 10 -7 10 -10 26 -7 35 9 22
26 7 19 -16z m2725 20 c13 -9 13 -10 -1 -6 -9 3 -22 0 -28 -6 -13 -13 -26 -3
-16 12 8 14 26 14 45 0z m20 -58 c0 -6 -9 -15 -20 -21 -14 -7 -20 -7 -20 0 0
5 5 10 10 10 6 0 10 5 10 10 0 6 -7 10 -16 10 -13 0 -14 3 -4 15 10 12 14 12
26 0 8 -7 14 -18 14 -24z m-2740 -41 c8 -5 11 -12 8 -16 -4 -3 -14 1 -23 10
-18 17 -9 21 15 6z m2828 -51 c-3 -8 -7 -3 -11 10 -4 17 -3 21 5 13 5 -5 8
-16 6 -23z m32 21 c0 -5 -5 -10 -11 -10 -5 0 -7 5 -4 10 3 6 8 10 11 10 2 0 4
-4 4 -10z m-59 -23 c-13 -13 -26 -3 -16 12 3 6 11 8 17 5 6 -4 6 -10 -1 -17z
m-2783 -13 c-10 -10 -21 -13 -29 -8 -12 7 0 14 41 23 2 1 -3 -6 -12 -15z m52
-2 c0 -5 -7 -17 -16 -28 -14 -17 -15 -17 -10 -1 3 10 6 23 6 28 0 5 5 9 10 9
6 0 10 -4 10 -8z m2460 -72 c0 -5 7 -10 15 -10 8 0 15 -6 15 -14 0 -8 7 -17
16 -20 10 -4 14 -14 11 -25 -3 -14 1 -18 17 -17 11 1 29 -8 39 -20 21 -27 22
-45 2 -38 -18 7 -20 -7 -2 -26 10 -12 9 -12 -6 0 -13 10 -16 21 -12 44 l7 31
-20 -35 c-15 -27 -17 -40 -9 -55 10 -20 10 -20 -12 0 -19 16 -24 17 -32 5 -8
-11 -9 -8 -5 13 4 15 2 27 -4 27 -5 0 -10 -8 -10 -17 0 -12 -6 -8 -16 12 -8
17 -25 40 -36 52 -12 13 -18 26 -15 30 4 3 1 13 -6 21 -6 9 -7 13 -2 10 6 -3
19 5 30 18 21 25 35 31 35 14z m383 -43 c-8 -13 -23 3 -23 26 0 20 0 20 14 2
8 -11 12 -23 9 -28z m-1918 9 c12 -9 16 -20 12 -35 -3 -14 1 -29 12 -40 16
-16 17 -19 2 -29 -14 -10 -13 -11 3 -5 13 4 17 3 12 -5 -9 -15 6 -16 21 -1 7
7 24 8 42 4 l31 -6 -23 -31 c-16 -22 -23 -26 -25 -14 -3 13 -10 11 -39 -13
-28 -23 -38 -27 -48 -18 -7 7 -11 16 -8 21 3 4 9 2 14 -5 8 -13 13 -5 10 14
-1 5 3 6 8 3 5 -3 14 0 20 7 8 11 4 13 -19 9 -17 -2 -39 -16 -50 -30 -22 -27
-27 -47 -8 -36 7 4 8 3 4 -5 -4 -6 -11 -9 -16 -6 -4 3 -10 0 -12 -7 -2 -6 -11
-12 -20 -14 -14 -2 -15 2 -7 23 5 14 7 28 4 31 -3 3 -5 0 -5 -6 0 -7 -7 -12
-16 -12 -11 0 -14 -5 -10 -16 4 -11 -1 -18 -14 -21 -11 -3 -20 -10 -20 -17 0
-6 -8 -20 -17 -31 -15 -20 -15 -19 -10 5 6 24 5 24 -20 -5 -17 -20 -23 -24
-18 -10 4 11 8 30 9 43 1 12 8 27 16 32 8 5 11 10 6 10 -5 0 -3 7 4 15 7 9 10
18 6 22 -3 3 -6 2 -6 -4 0 -5 -11 -15 -25 -21 -13 -6 -31 -25 -40 -42 -8 -16
-21 -30 -27 -30 -6 0 -3 9 7 20 10 11 16 23 12 26 -6 7 -30 -33 -34 -58 -4
-26 12 -22 31 7 9 14 23 25 31 25 10 0 6 -8 -10 -26 -14 -15 -23 -30 -20 -33
2 -4 -6 -7 -17 -7 -14 1 -27 -9 -35 -24 -7 -14 -13 -21 -13 -16 0 14 -27 -13
-33 -33 -2 -10 1 -18 9 -18 8 0 14 6 14 13 0 6 6 14 14 17 11 4 11 1 2 -18 -9
-19 -17 -22 -52 -20 -55 3 -71 13 -47 31 29 22 4 16 -28 -7 -25 -17 -29 -18
-29 -4 0 9 5 13 10 10 6 -3 10 3 10 14 0 11 7 26 15 35 20 19 19 23 -5 29 -15
4 -20 0 -20 -14 0 -17 -3 -18 -20 -9 -11 6 -20 7 -20 1 0 -5 7 -11 15 -15 19
-7 8 -36 -13 -36 -13 0 -13 -2 3 -13 17 -13 17 -15 -6 -31 -14 -11 -19 -20
-13 -23 7 -2 10 -13 7 -23 -4 -15 0 -20 13 -21 16 0 16 -2 -3 -11 -16 -8 -23
-20 -23 -40 0 -21 -4 -27 -12 -22 -10 6 -10 4 0 -8 7 -8 10 -23 6 -32 -4 -10
-1 -16 9 -16 8 0 21 -7 28 -16 12 -14 9 -16 -26 -14 -64 4 -67 3 -55 -21 11
-19 13 -19 35 -5 27 18 42 9 17 -11 -11 -9 -11 -12 -2 -7 8 4 25 16 38 27 12
11 22 15 22 9 0 -6 -5 -14 -10 -17 -12 -8 -44 -76 -41 -89 1 -5 -4 -4 -12 2
-10 9 -22 9 -44 2 -30 -11 -39 -34 -21 -57 6 -7 5 -20 -3 -35 -7 -13 -12 -29
-10 -37 1 -9 -3 -12 -13 -8 -8 3 -18 2 -21 -3 -4 -6 0 -10 7 -10 8 -1 5 -6 -7
-15 -17 -14 -20 -13 -28 1 -6 11 -5 19 3 24 7 4 9 13 5 20 -10 17 -14 239 -4
246 4 2 6 11 2 19 -3 9 0 22 6 29 9 11 9 15 -1 19 -8 3 -6 6 6 6 15 1 17 6 11
29 -4 15 -7 34 -6 42 1 8 3 37 4 65 2 44 6 52 36 72 19 13 30 23 25 24 -5 0 0
4 11 8 11 5 25 4 33 -1 9 -8 12 -5 12 10 0 22 30 44 53 41 6 -1 23 2 35 7 21
9 22 11 8 23 -15 13 -15 15 4 28 11 8 19 22 18 31 -2 9 4 17 12 18 8 0 22 3
30 7 57 21 85 16 58 -11 -19 -19 28 -15 57 4 15 10 25 12 25 5 0 -6 -7 -11
-15 -11 -8 0 -15 -4 -15 -10 0 -18 26 1 64 46 21 24 36 50 34 56 -3 8 -12 4
-23 -10 -11 -12 -24 -22 -29 -22 -5 0 1 11 14 25 24 25 60 34 60 14 0 -6 6 -9
13 -6 7 2 11 18 10 38 -1 19 1 26 3 17 8 -28 24 -21 25 10 0 23 1 24 8 7 5
-11 6 -27 3 -35 -5 -13 -3 -13 11 -1 9 7 17 24 17 37 0 27 8 30 35 10z m-926
-15 c19 -19 19 -19 0 -24 -10 -3 -19 -1 -19 3 0 5 -3 15 -6 24 -8 21 2 20 25
-3z m2356 9 c4 -6 11 -8 16 -5 5 3 6 -1 2 -10 -3 -10 0 -21 8 -26 11 -7 11 -9
-2 -9 -14 0 -49 39 -49 55 0 9 19 5 25 -5z m-1779 -15 c-8 -8 -18 -15 -22 -15
-3 0 -1 7 6 15 7 8 17 15 22 15 5 0 3 -7 -6 -15z m402 -20 c-14 -30 -23 -32
-25 -5 -1 11 2 18 7 15 5 -3 11 -1 15 5 12 20 14 10 3 -15z m2218 -23 c-20
-20 -22 -1 -4 31 11 20 12 21 16 3 2 -10 -3 -26 -12 -34z m-3121 8 c0 -7 -6
-15 -12 -17 -8 -3 -13 4 -13 17 0 13 5 20 13 18 6 -3 12 -11 12 -18z m940 -20
c-3 -5 -11 -10 -16 -10 -6 0 -7 5 -4 10 3 6 11 10 16 10 6 0 7 -4 4 -10z
m-575 -10 c12 -8 10 -9 -7 -7 -12 2 -26 6 -29 10 -11 11 19 8 36 -3z m1484
-20 c-6 -6 -10 -3 -10 10 0 13 4 16 10 10 7 -7 7 -13 0 -20z m-164 10 c0 -5
-5 -10 -11 -10 -5 0 -7 5 -4 10 3 6 8 10 11 10 2 0 4 -4 4 -10z m30 6 c0 -3
-4 -8 -10 -11 -5 -3 -10 -1 -10 4 0 6 5 11 10 11 6 0 10 -2 10 -4z m556 -18
l19 -21 -27 18 c-29 18 -34 25 -20 25 5 0 17 -10 28 -22z m-2290 -14 c-4 -9
-9 -15 -11 -12 -3 3 -3 13 1 22 4 9 9 15 11 12 3 -3 3 -13 -1 -22z m1074 22
c0 -3 -4 -8 -10 -11 -5 -3 -10 -1 -10 4 0 6 5 11 10 11 6 0 10 -2 10 -4z
m1295 -25 c18 -21 18 -24 3 -18 -23 8 -23 -2 -2 -18 15 -11 15 -12 0 -12 -11
0 -19 11 -23 29 -3 15 -9 25 -14 23 -4 -3 -10 -1 -13 4 -4 5 2 11 11 13 10 3
18 4 18 4 0 -1 9 -12 20 -25z m-1323 4 c0 -8 1 -18 2 -23 2 -12 -84 -86 -91
-78 -3 3 1 14 10 24 10 10 17 24 17 30 0 7 9 17 20 24 11 7 20 18 20 25 0 18
20 16 22 -2z m-1016 -28 c10 3 14 -2 14 -17 0 -22 -1 -23 -20 -5 -11 10 -20
23 -19 29 0 7 2 7 5 -1 3 -7 12 -9 20 -6z m791 -119 c-3 -8 -6 -5 -6 6 -1 11
2 17 5 13 3 -3 4 -12 1 -19z m203 18 c0 -2 -8 -10 -17 -17 -16 -13 -17 -12 -4
4 13 16 21 21 21 13z m-564 -201 c-3 -9 -10 -14 -15 -10 -5 3 -12 1 -16 -5 -3
-6 1 -13 9 -16 16 -6 12 -24 -5 -24 -6 0 -7 5 -4 10 3 6 -1 10 -9 10 -9 0 -16
7 -16 15 0 8 -5 15 -11 15 -5 0 -7 5 -4 11 4 6 13 8 20 5 8 -3 19 2 26 10 15
18 34 3 25 -21z m54 -22 c-12 -9 -33 -39 -46 -67 -13 -28 -24 -45 -24 -37 0
11 -3 11 -15 1 -9 -7 -15 -8 -15 -2 0 5 7 12 14 15 8 3 22 21 32 39 22 43 55
79 66 72 5 -4 0 -13 -12 -21z m2334 -125 c4 -24 3 -38 -4 -38 -5 0 -10 10 -10
23 0 13 -6 29 -12 36 -11 11 -10 12 0 7 10 -6 11 -1 7 21 -4 22 -3 23 3 8 5
-11 12 -37 16 -57z m-2353 -4 c-9 -38 -9 -38 -10 -7 -1 33 10 74 16 57 2 -6
-1 -28 -6 -50z m-91 6 c0 -5 -6 -10 -14 -10 -8 0 -18 5 -21 10 -3 6 3 10 14
10 12 0 21 -4 21 -10z m-340 -36 c0 -8 -4 -12 -10 -9 -5 3 -10 10 -10 16 0 5
5 9 10 9 6 0 10 -7 10 -16z m399 -16 c-1 -13 1 -30 4 -38 6 -13 3 -84 -3 -100
-1 -3 -6 6 -10 20 l-8 25 -1 -26 c-1 -14 2 -29 6 -33 13 -13 9 -41 -9 -60 -10
-11 -18 -14 -18 -8 0 6 5 14 10 17 13 8 13 55 0 55 -11 0 -33 -47 -27 -58 2
-4 -5 -16 -16 -26 -20 -19 -20 -19 -13 5 13 41 14 103 2 118 -9 12 -8 13 7 8
12 -5 17 -3 15 5 -2 6 6 21 19 34 14 14 23 35 23 54 0 16 5 30 11 30 6 0 9
-10 8 -22z m2691 2 c0 -5 -4 -10 -10 -10 -5 0 -10 5 -10 10 0 6 5 10 10 10 6
0 10 -4 10 -10z m-283 -16 c-3 -3 -12 -4 -19 -1 -8 3 -5 6 6 6 11 1 17 -2 13
-5z m-2844 -74 c3 -11 1 -18 -4 -14 -5 3 -9 12 -9 20 0 20 7 17 13 -6z m17
-60 c0 -5 -5 -10 -11 -10 -5 0 -7 5 -4 10 3 6 8 10 11 10 2 0 4 -4 4 -10z
m2430 0 c0 -5 -2 -10 -4 -10 -3 0 -8 5 -11 10 -3 6 -1 10 4 10 6 0 11 -4 11
-10z m-2097 -20 c-3 -11 -9 -17 -14 -14 -5 3 -9 0 -9 -5 0 -6 -9 -11 -20 -11
-11 0 -20 -5 -20 -11 0 -5 -5 -7 -12 -3 -9 6 -9 9 0 12 7 2 10 8 7 13 -4 5 1
6 9 3 10 -4 16 -1 16 9 0 9 10 18 23 20 12 2 23 5 24 6 0 0 -1 -8 -4 -19z
m2497 -45 c0 -5 -5 -3 -10 5 -5 8 -10 20 -10 25 0 6 5 3 10 -5 5 -8 10 -19 10
-25z m-2017 -18 c4 3 7 1 7 -5 0 -21 -28 -12 -33 11 -5 20 -5 20 7 5 7 -10 16
-15 19 -11z m283 -12 c-12 -18 -13 -24 -4 -23 7 2 12 -3 10 -10 -1 -9 5 -8 23
4 16 10 25 12 25 5 0 -7 10 -10 24 -7 14 2 26 0 28 -6 2 -6 12 -3 22 7 13 14
20 15 25 6 8 -13 16 -13 104 -6 49 4 57 2 57 -13 1 -16 1 -16 11 1 12 20 35
23 43 5 5 -10 7 -10 12 0 3 6 13 12 23 12 9 0 22 5 29 12 9 9 14 6 21 -13 6
-14 10 -18 10 -8 1 9 10 24 22 35 21 19 21 18 40 -5 16 -19 20 -21 25 -7 8 21
33 20 56 -1 17 -15 18 -15 18 0 0 23 49 22 67 0 7 -10 13 -13 12 -8 -3 24 2
27 16 9 14 -18 14 -18 15 6 l0 25 25 -29 c20 -23 25 -25 25 -11 0 14 3 15 14
6 11 -10 17 -8 25 6 10 17 10 17 11 1 0 -10 7 -18 15 -18 21 0 30 4 28 11 -3
10 30 5 51 -7 12 -8 17 -18 13 -28 -4 -10 -11 -14 -17 -11 -7 4 -6 -3 0 -21
10 -24 9 -26 -13 -22 -20 4 -23 1 -19 -19 2 -13 -1 -23 -7 -23 -6 0 -11 6 -11
13 0 7 -9 13 -20 14 -11 1 -18 -3 -15 -8 4 -5 9 -22 11 -37 5 -27 5 -27 -11
-5 -8 12 -15 26 -14 30 4 22 -3 33 -19 33 -10 0 -23 5 -30 12 -7 7 -12 8 -12
4 0 -5 7 -14 16 -21 9 -6 15 -17 13 -23 -2 -7 -23 5 -48 27 -46 41 -87 47 -76
10 4 -11 2 -19 -4 -19 -6 0 -11 5 -11 10 0 16 -50 12 -67 -5 -8 -8 -19 -13
-24 -10 -5 4 -9 0 -9 -7 0 -10 -2 -10 -9 1 -5 7 -15 11 -22 9 -8 -3 -22 1 -31
9 -15 13 -21 13 -48 0 -17 -9 -38 -13 -46 -10 -10 4 -12 0 -7 -13 6 -15 3 -15
-17 4 -20 18 -26 20 -39 9 -9 -7 -29 -19 -46 -27 -16 -8 -32 -18 -35 -21 -3
-4 -14 -9 -25 -11 -14 -2 -19 2 -17 14 3 19 -14 33 -23 18 -4 -7 -12 -7 -24 0
-16 8 -20 5 -24 -18 -4 -21 -16 -33 -44 -46 -53 -24 -110 -77 -105 -98 2 -10
-2 -18 -8 -18 -6 0 -9 -4 -6 -9 3 -5 -4 -12 -17 -16 -21 -7 -21 -7 5 -14 l28
-6 -31 -33 c-44 -47 -29 -51 17 -5 20 21 34 32 30 26 -4 -8 -2 -13 6 -13 21 0
-24 -37 -66 -54 -37 -15 -38 -15 -33 4 7 29 -6 25 -38 -12 -17 -19 -30 -27
-33 -20 -2 7 -7 10 -12 7 -5 -3 -7 3 -6 12 2 12 12 17 31 18 22 0 29 5 30 22
1 12 -2 20 -7 17 -4 -3 -8 -1 -8 4 0 14 47 51 56 44 4 -4 4 -2 0 5 -5 9 -15 8
-41 -3 -44 -18 -51 -18 -35 1 21 26 3 28 -22 3 -12 -12 -26 -22 -30 -21 -5 2
-8 -6 -8 -17 0 -13 -5 -18 -16 -13 -13 5 -12 9 5 27 26 28 26 36 1 29 -11 -3
-20 -10 -20 -17 0 -6 -6 0 -14 14 -15 29 -4 49 18 31 10 -9 16 -9 21 -1 4 7
-2 14 -15 17 -22 6 -22 7 -5 19 10 8 15 17 11 21 -4 5 -18 -4 -30 -18 -18 -20
-30 -26 -50 -22 -27 5 -34 17 -16 28 15 9 12 39 -6 61 -15 18 -15 18 -11 -7 4
-25 3 -25 -25 -12 -15 8 -28 20 -28 27 0 7 -7 27 -16 45 -16 33 -11 58 6 31 8
-12 10 -11 11 5 1 11 1 28 0 39 -3 42 60 109 71 75 2 -6 16 -13 32 -14 25 -3
27 -1 22 23 -6 25 -5 25 8 9 8 -10 20 -15 30 -11 18 7 21 -8 6 -37 -9 -16 -7
-19 9 -19 14 0 18 5 14 19 -6 23 34 51 41 29 3 -7 6 -20 9 -28 3 -10 8 -6 16
13 13 34 21 35 15 2 -3 -18 0 -25 11 -25 12 0 14 -4 5 -19 -13 -25 -13 -44 0
-36 5 3 12 21 16 40 3 19 10 35 15 35 5 0 14 11 21 24 6 14 20 27 32 28 30 5
31 2 12 -27z m-655 -10 c2 -16 7 -36 12 -42 6 -8 6 -13 0 -13 -5 0 -21 6 -36
13 -27 12 -36 27 -17 27 6 0 10 9 10 19 0 11 6 21 13 24 16 6 15 7 18 -28z
m2109 -3 c0 -8 -1 -13 -3 -11 -1 2 -9 12 -16 22 -12 15 -12 17 3 11 9 -3 16
-13 16 -22z m-145 -2 c-27 -12 -43 -12 -25 0 8 5 22 9 30 9 10 0 8 -3 -5 -9z
m185 6 c0 -3 -4 -8 -10 -11 -5 -3 -10 -1 -10 4 0 6 5 11 10 11 6 0 10 -2 10
-4z m300 -6 c0 -5 -5 -10 -11 -10 -5 0 -7 5 -4 10 3 6 8 10 11 10 2 0 4 -4 4
-10z m-2630 -29 c0 -10 -7 -21 -15 -25 -8 -3 -15 -18 -15 -33 0 -21 3 -24 12
-15 21 21 30 13 25 -22 -3 -19 0 -39 5 -44 5 -5 3 -14 -7 -22 -8 -7 -15 -16
-15 -21 0 -16 42 -10 55 8 11 14 13 13 17 -11 3 -14 1 -29 -5 -33 -6 -3 -7 -1
-3 5 4 7 2 12 -3 12 -6 0 -11 -2 -11 -4 0 -2 -3 -12 -7 -22 -4 -11 -2 -15 4
-11 13 8 47 -29 38 -42 -3 -6 1 -11 11 -11 12 0 14 -3 6 -12 -12 -16 -1 -50
14 -40 17 11 24 40 11 46 -7 2 -2 5 11 5 23 1 30 -14 10 -22 -10 -3 -10 -7 -1
-17 15 -16 35 20 33 58 -1 15 -2 36 -1 47 1 17 3 17 11 5 8 -12 10 -12 10 -1
0 8 3 11 6 8 4 -4 2 -12 -3 -19 -6 -7 -14 -40 -18 -72 -5 -41 -10 -55 -16 -45
-7 12 -9 12 -10 -1 -1 -8 -1 -21 0 -29 2 -7 -2 -10 -8 -7 -5 4 -21 -5 -34 -20
-20 -21 -25 -23 -30 -10 -4 9 -1 16 6 16 8 0 9 3 1 8 -6 4 -10 17 -9 30 1 13
-2 25 -7 28 -4 3 -8 0 -8 -6 0 -6 -4 -9 -10 -5 -5 3 -7 12 -3 20 3 8 0 15 -7
15 -6 0 -8 5 -4 12 5 8 -2 9 -24 5 -24 -5 -32 -3 -32 8 0 9 -6 12 -16 8 -14
-5 -15 -3 -7 11 11 20 5 76 -8 76 -13 0 -11 37 3 59 7 11 8 26 3 37 -17 39
-13 77 9 95 27 24 36 23 36 0z m2227 -21 c-1 -21 -10 -18 -13 5 -1 8 2 15 6
15 5 0 8 -9 7 -20z m387 -5 c-4 -8 -8 -15 -10 -15 -2 0 -4 7 -4 15 0 8 4 15
10 15 5 0 7 -7 4 -15z m-2470 -11 c4 -10 -2 -33 -12 -53 -11 -20 -23 -51 -27
-69 -10 -49 -20 -45 -21 9 0 27 2 45 6 39 4 -6 12 0 19 14 8 13 11 29 7 34 -7
12 3 42 14 42 4 0 11 -7 14 -16z m46 -32 c0 -15 -5 -34 -11 -42 -8 -12 -9 -10
-4 7 3 12 2 31 -4 41 -6 11 -8 22 -4 25 11 12 23 -4 23 -31z m2378 13 c-6 -14
-13 -23 -16 -21 -7 7 9 46 18 46 5 0 4 -11 -2 -25z m-353 5 c3 -6 -1 -7 -9 -4
-18 7 -21 14 -7 14 6 0 13 -4 16 -10z m-2169 -26 c-3 -8 -2 -12 4 -9 6 3 10
-4 10 -17 0 -13 5 -29 12 -36 9 -9 9 -12 -1 -12 -7 0 -15 9 -18 20 -3 11 -9
20 -13 20 -10 0 -20 37 -12 44 11 12 24 5 18 -10z m1514 6 c0 -5 -4 -10 -10
-10 -5 0 -10 5 -10 10 0 6 5 10 10 10 6 0 10 -4 10 -10z m714 -15 c-4 -8 -10
-13 -15 -10 -4 3 -6 12 -3 20 4 8 10 13 15 10 4 -3 6 -12 3 -20z m-2106 3 c-2
-6 -10 -14 -16 -16 -7 -2 -10 2 -6 12 7 18 28 22 22 4z m-230 -33 c0 -14 -4
-25 -9 -25 -10 0 -12 34 -2 43 10 10 11 9 11 -18z m2600 -26 c-4 -3 -3 -20 3
-38 15 -41 6 -51 -11 -11 -8 19 -10 43 -5 67 7 35 8 36 15 13 3 -14 3 -28 -2
-31z m-2315 -19 c-7 -28 -13 -25 -13 6 0 14 4 23 9 20 5 -3 7 -15 4 -26z m-38
-9 c-3 -12 -11 -19 -16 -16 -5 4 -5 14 2 26 13 26 23 18 14 -10z m252 -13 c-3
-8 -6 -5 -6 6 -1 11 2 17 5 13 3 -3 4 -12 1 -19z m1877 -53 c3 -8 1 -15 -4
-15 -6 0 -10 7 -10 15 0 8 2 15 4 15 2 0 6 -7 10 -15z m489 -24 c5 -22 -1 -33
-14 -25 -12 7 -12 44 0 44 5 0 11 -9 14 -19z m-2653 -7 c0 -2 -7 -4 -15 -4 -8
0 -15 4 -15 10 0 5 7 7 15 4 8 -4 15 -8 15 -10z m1805 6 c3 -5 2 -10 -4 -10
-5 0 -13 5 -16 10 -3 6 -2 10 4 10 5 0 13 -4 16 -10z m-1050 -9 c3 -5 2 -12
-3 -15 -5 -3 -9 1 -9 9 0 17 3 19 12 6z m1722 -6 c0 -8 -4 -12 -9 -9 -4 3 -8
9 -8 15 0 5 4 9 8 9 5 0 9 -7 9 -15z m-2157 -14 c0 -5 -7 -11 -14 -14 -10 -4
-13 -1 -9 9 6 15 23 19 23 5z m2121 -13 c11 -21 11 -22 -4 -9 -10 7 -17 17
-17 22 0 15 9 10 21 -13z m-2051 8 c0 -9 -40 -13 -46 -5 -3 5 6 9 20 9 14 0
26 -2 26 -4z m1407 -18 c-3 -8 -6 -5 -6 6 -1 11 2 17 5 13 3 -3 4 -12 1 -19z
m818 -7 c4 -21 -9 -29 -19 -12 -6 10 4 45 11 38 2 -2 5 -14 8 -26z m194 -21
c-6 -25 -17 -52 -24 -60 -10 -11 -11 -20 -4 -27 6 -6 6 -19 -1 -39 -9 -27 -9
-28 5 -10 17 22 19 14 9 -45 -5 -30 -10 -36 -26 -31 -10 2 -18 12 -16 21 1 9
-1 21 -5 28 -9 14 12 102 30 124 7 8 13 21 13 27 0 16 20 65 25 61 2 -3 -1
-25 -6 -49z m-289 20 c0 -5 -2 -10 -4 -10 -3 0 -8 5 -11 10 -3 6 -1 10 4 10 6
0 11 -4 11 -10z m-2197 -28 c3 -4 -3 -18 -14 -31 -10 -13 -19 -18 -19 -11 0
10 -3 10 -15 0 -20 -17 -19 -4 3 25 17 24 37 32 45 17z m2372 -4 c2 -7 6 -31
9 -53 l6 -40 -19 23 c-13 15 -21 18 -24 10 -3 -8 -6 -6 -6 5 -1 9 4 17 9 17 6
0 10 5 10 10 0 6 -5 9 -12 8 -6 -2 -14 5 -16 15 -4 20 36 25 43 5z m-277 -47
c-5 -2 1 -14 13 -27 12 -13 18 -24 13 -24 -11 0 -33 32 -52 75 l-13 30 24 -25
c13 -14 20 -27 15 -29z m22 24 c14 -19 14 -19 -2 -6 -10 7 -18 18 -18 24 0 6
1 8 3 6 1 -2 9 -13 17 -24z m-1955 -38 c-4 -9 -18 -15 -33 -15 -15 0 -43 -2
-62 -5 l-35 -6 38 12 c21 7 41 18 45 23 18 29 58 21 47 -9z m1460 13 c3 -6 -1
-7 -9 -4 -18 7 -21 14 -7 14 6 0 13 -4 16 -10z m-1242 -15 c-3 -9 -8 -14 -10
-11 -3 3 -2 9 2 15 9 16 15 13 8 -4z m1151 -11 c7 -19 2 -18 -19 6 -16 17 -16
20 -3 15 9 -4 19 -13 22 -21z m-1944 6 c0 -5 -5 -10 -11 -10 -5 0 -7 5 -4 10
3 6 8 10 11 10 2 0 4 -4 4 -10z m770 -2 c0 -21 -54 -47 -74 -36 -9 5 -21 6
-26 3 -6 -3 -7 1 -4 9 7 19 24 21 24 4 0 -6 7 -3 15 8 13 16 14 16 9 2 -8 -24
1 -23 26 2 23 23 30 25 30 8z m1271 -19 c19 -16 20 -18 4 -10 -34 17 -51 31
-39 31 7 0 22 -9 35 -21z m427 -14 c-3 -3 -9 2 -12 12 -6 14 -5 15 5 6 7 -7
10 -15 7 -18z m-2588 5 c0 -5 -7 -10 -16 -10 -8 0 -12 5 -9 10 3 6 10 10 16
10 5 0 9 -4 9 -10z m158 -2 c13 -13 17 -59 5 -57 -24 4 -33 -4 -33 -30 0 -17
5 -33 10 -36 6 -3 10 4 10 18 0 14 6 24 15 24 19 0 20 -33 1 -44 -8 -4 -16
-19 -19 -33 -4 -24 -4 -24 -6 3 -1 19 -7 31 -20 34 -17 4 -18 8 -5 49 8 24 14
46 14 49 0 3 0 12 0 20 0 18 12 19 28 3z m-728 -23 c0 -8 -4 -15 -10 -15 -5 0
-10 7 -10 15 0 8 5 15 10 15 6 0 10 -7 10 -15z m73 -20 c27 -34 27 -34 7 -45
-25 -13 -60 -4 -60 16 0 8 5 14 11 14 7 0 9 10 5 25 -9 35 4 31 37 -10z m462
25 c3 -5 1 -10 -4 -10 -6 0 -11 5 -11 10 0 6 2 10 4 10 3 0 8 -4 11 -10z m226
-23 c-8 -8 -11 -7 -11 4 0 20 13 34 18 19 3 -7 -1 -17 -7 -23z m-158 -10 c-5
-8 -8 -7 -11 1 -2 7 -11 12 -20 12 -14 0 -15 2 -2 10 17 11 43 -7 33 -23z
m837 29 c0 -3 -4 -8 -10 -11 -5 -3 -10 -1 -10 4 0 6 5 11 10 11 6 0 10 -2 10
-4z m1760 -11 c0 -8 -4 -15 -10 -15 -5 0 -10 7 -10 15 0 8 5 15 10 15 6 0 10
-7 10 -15z m60 -23 c0 -15 -2 -15 -10 -2 -13 20 -13 33 0 25 6 -3 10 -14 10
-23z m-2180 4 c0 -2 -8 -10 -17 -17 -16 -13 -17 -12 -4 4 13 16 21 21 21 13z
m2125 -16 c3 -5 1 -10 -4 -10 -6 0 -11 5 -11 10 0 6 2 10 4 10 3 0 8 -4 11
-10z m-3002 -37 c26 -36 26 -37 7 -55 -23 -22 -34 -23 -26 -3 3 8 1 15 -4 15
-15 0 -32 39 -25 60 9 28 18 25 48 -17z m457 7 c0 -5 -4 -10 -10 -10 -5 0 -10
5 -10 10 0 6 5 10 10 10 6 0 10 -4 10 -10z m2493 -20 c3 -11 1 -20 -4 -20 -5
0 -9 9 -9 20 0 11 2 20 4 20 2 0 6 -9 9 -20z m-2363 -11 c0 -6 -4 -7 -10 -4
-5 3 -10 11 -10 16 0 6 5 7 10 4 6 -3 10 -11 10 -16z m29 -11 c-8 -14 -14 -18
-17 -10 -4 13 17 46 25 38 3 -2 -1 -15 -8 -28z m2731 11 c0 -9 -8 -23 -17 -30
-15 -13 -16 -11 -10 11 6 24 5 24 -8 6 -12 -16 -12 -22 -2 -28 9 -6 4 -15 -18
-33 -16 -14 -34 -23 -40 -22 -13 4 -20 47 -8 47 5 0 15 15 22 33 11 28 18 33
47 33 25 0 34 -4 34 -17z m-3400 -29 c-18 -11 -22 -7 -14 14 5 13 10 14 18 6
8 -8 7 -13 -4 -20z m230 20 c0 -5 -5 -10 -11 -10 -5 0 -7 5 -4 10 3 6 8 10 11
10 2 0 4 -4 4 -10z m100 -11 c0 -11 -4 -17 -10 -14 -5 3 -10 13 -10 21 0 8 5
14 10 14 6 0 10 -9 10 -21z m210 2 c0 -6 -4 -12 -8 -15 -5 -3 -9 1 -9 9 0 8 4
15 9 15 4 0 8 -4 8 -9z m-242 -25 c3 -13 -2 -16 -25 -13 -39 5 -45 37 -6 33
17 -2 29 -10 31 -20z m72 4 c0 -11 -4 -20 -10 -20 -5 0 -10 9 -10 20 0 11 5
20 10 20 6 0 10 -9 10 -20z m265 -17 c-4 -10 -9 -33 -12 -51 -5 -29 -7 -31
-19 -15 -12 16 -13 16 -14 -9 0 -14 5 -28 12 -30 6 -2 8 -10 4 -16 -10 -17
-26 -15 -26 3 0 8 -5 15 -11 15 -6 0 -9 9 -6 19 3 14 1 18 -9 14 -8 -3 -14 0
-14 5 0 19 23 62 32 62 5 0 7 -4 4 -9 -3 -5 1 -12 10 -15 22 -8 21 -9 28 19 4
14 11 25 17 25 7 0 8 -7 4 -17z m31 -28 c1 -8 -1 -17 -5 -19 -4 -3 -8 7 -9 21
-2 27 10 25 14 -2z m-396 -5 c0 -5 -2 -10 -4 -10 -3 0 -8 5 -11 10 -3 6 -1 10
4 10 6 0 11 -4 11 -10z m-72 -22 c19 -19 14 -30 -8 -18 -11 6 -20 15 -20 20 0
14 14 12 28 -2z m77 -66 c-2 -2 -13 2 -25 8 -17 9 -20 14 -9 20 8 6 17 2 25
-8 7 -9 11 -18 9 -20z m268 11 c-5 -11 -3 -14 6 -8 11 6 11 3 1 -16 -19 -36
-20 -36 -20 10 0 24 4 40 10 36 5 -3 6 -13 3 -22z m104 5 c-3 -8 -6 -5 -6 6
-1 11 2 17 5 13 3 -3 4 -12 1 -19z m-702 -7 c7 -18 -20 -41 -47 -41 -24 0 -23
31 2 37 11 3 18 9 15 12 -2 4 2 8 10 8 8 0 17 -7 20 -16z m41 -58 c-10 -10
-19 5 -10 18 6 11 8 11 12 0 2 -7 1 -15 -2 -18z m594 7 c0 -5 -5 -10 -11 -10
-5 0 -7 5 -4 10 3 6 8 10 11 10 2 0 4 -4 4 -10z m58 -3 c14 0 14 -3 6 -34 -4
-13 -11 -23 -16 -23 -6 0 -7 11 -4 25 5 18 2 25 -9 25 -8 0 -14 -8 -13 -17 3
-44 -3 -84 -12 -78 -11 7 -13 58 -4 93 5 16 11 21 23 16 9 -3 22 -7 29 -7z
m-458 -28 c0 -5 -7 -9 -15 -9 -15 0 -20 12 -9 23 8 8 24 -1 24 -14z m-150 -3
c0 -2 -7 -7 -16 -10 -8 -3 -12 -2 -9 4 6 10 25 14 25 6z m686 -71 c-14 -31
-18 -26 -10 14 4 19 10 28 14 21 4 -7 2 -22 -4 -35z m-701 25 c3 -5 1 -10 -4
-10 -6 0 -11 5 -11 10 0 6 2 10 4 10 3 0 8 -4 11 -10z m-114 -23 c-10 -9 -11
-8 -5 6 3 10 9 15 12 12 3 -3 0 -11 -7 -18z m729 -12 c0 -19 -4 -35 -10 -35
-5 0 -10 16 -10 35 0 19 5 35 10 35 6 0 10 -16 10 -35z m-837 -51 c-3 -8 -9
-14 -13 -14 -13 0 -22 19 -15 30 9 14 34 0 28 -16z m887 -54 c12 -23 12 -24
-3 -11 -10 7 -17 10 -17 6 0 -5 -2 -6 -5 -3 -3 3 -3 13 1 22 7 19 7 19 24 -14z
m80 -80 c0 -5 -2 -10 -4 -10 -3 0 -8 5 -11 10 -3 6 -1 10 4 10 6 0 11 -4 11
-10z"/>
<path d="M9735 3640 c-10 -11 -14 -20 -9 -20 5 0 15 9 22 20 7 11 11 20 9 20
-2 0 -12 -9 -22 -20z"/>
<path d="M7580 3069 c0 -5 5 -7 10 -4 6 3 10 8 10 11 0 2 -4 4 -10 4 -5 0 -10
-5 -10 -11z"/>
<path d="M6545 2770 c-3 -5 3 -10 14 -10 12 0 21 -5 21 -12 0 -6 3 -8 6 -5 8
7 -14 37 -27 37 -4 0 -11 -4 -14 -10z"/>
<path d="M6600 2770 c0 -5 7 -10 16 -10 8 0 12 5 9 10 -3 6 -10 10 -16 10 -5
0 -9 -4 -9 -10z"/>
<path d="M6605 2732 c6 -6 24 -14 40 -18 21 -4 27 -3 20 4 -5 6 -23 14 -40 18
-21 4 -27 3 -20 -4z"/>
<path d="M9506 3383 c-6 -14 -5 -15 5 -6 7 7 10 15 7 18 -3 3 -9 -2 -12 -12z"/>
<path d="M8490 2929 c0 -5 5 -7 10 -4 6 3 10 8 10 11 0 2 -4 4 -10 4 -5 0 -10
-5 -10 -11z"/>
<path d="M8568 2737 c-3 -19 -2 -25 4 -19 6 6 8 18 6 28 -3 14 -5 12 -10 -9z"/>
<path d="M8575 2670 c-3 -5 -2 -10 4 -10 5 0 13 5 16 10 3 6 2 10 -4 10 -5 0
-13 -4 -16 -10z"/>
<path d="M8716 2664 c-11 -8 -16 -14 -10 -14 13 0 39 18 34 24 -3 2 -14 -2
-24 -10z"/>
<path d="M8655 2660 c4 -6 11 -8 16 -5 14 9 11 15 -7 15 -8 0 -12 -5 -9 -10z"/>
<path d="M7840 2475 c0 -8 2 -15 4 -15 2 0 6 7 10 15 3 8 1 15 -4 15 -6 0 -10
-7 -10 -15z"/>
<path d="M8622 2460 c0 -14 2 -19 5 -12 2 6 2 18 0 25 -3 6 -5 1 -5 -13z"/>
<path d="M8442 2075 c3 -4 14 -8 23 -9 9 -1 20 -9 25 -16 5 -8 12 -11 16 -7
11 11 -9 27 -42 33 -16 3 -26 2 -22 -1z"/>
<path d="M7490 2580 c0 -5 5 -10 10 -10 6 0 10 5 10 10 0 6 -4 10 -10 10 -5 0
-10 -4 -10 -10z"/>
<path d="M7225 2570 c-3 -5 -1 -10 4 -10 6 0 11 5 11 10 0 6 -2 10 -4 10 -3 0
-8 -4 -11 -10z"/>
<path d="M7340 2461 c0 -6 4 -13 10 -16 6 -3 7 1 4 9 -7 18 -14 21 -14 7z"/>
<path d="M7340 2402 c0 -4 9 -8 20 -9 11 -1 20 2 20 8 0 5 -9 9 -20 9 -11 0
-20 -4 -20 -8z"/>
<path d="M6710 2330 c0 -5 5 -10 10 -10 6 0 10 5 10 10 0 6 -4 10 -10 10 -5 0
-10 -4 -10 -10z"/>
<path d="M7100 2231 c0 -10 30 -24 37 -17 3 2 -5 9 -16 16 -12 6 -21 7 -21 1z"/>
<path d="M7095 2180 c-3 -5 1 -10 9 -10 9 0 16 5 16 10 0 6 -4 10 -9 10 -6 0
-13 -4 -16 -10z"/>
<path d="M6806 2172 c-3 -5 1 -9 9 -9 8 0 15 4 15 9 0 4 -4 8 -9 8 -6 0 -12
-4 -15 -8z"/>
<path d="M6874 2145 c-7 -17 4 -37 17 -30 12 8 12 45 -1 45 -6 0 -13 -7 -16
-15z"/>
<path d="M6910 2120 c0 -5 5 -10 11 -10 5 0 7 5 4 10 -3 6 -8 10 -11 10 -2 0
-4 -4 -4 -10z"/>
<path d="M6945 2090 c3 -5 11 -10 16 -10 6 0 7 5 4 10 -3 6 -11 10 -16 10 -6
0 -7 -4 -4 -10z"/>
<path d="M9040 1984 c0 -8 5 -12 10 -9 6 4 8 11 5 16 -9 14 -15 11 -15 -7z"/>
<path d="M7440 1970 c0 -5 5 -10 11 -10 5 0 7 5 4 10 -3 6 -8 10 -11 10 -2 0
-4 -4 -4 -10z"/>
<path d="M7358 1935 c-29 -25 -34 -35 -19 -35 5 0 19 14 31 30 26 36 24 37
-12 5z"/>
<path d="M6926 1681 c-3 -5 1 -11 9 -15 8 -3 15 -1 15 4 0 13 -18 22 -24 11z"/>
<path d="M6911 1625 c-1 -6 4 -16 11 -23 9 -9 8 -12 -5 -12 -9 0 -17 -4 -17
-10 0 -16 27 -11 34 6 9 23 7 36 -3 30 -5 -4 -12 0 -14 6 -3 7 -6 8 -6 3z"/>
<path d="M6886 1357 c3 -10 9 -15 12 -12 3 3 0 11 -7 18 -10 9 -11 8 -5 -6z"/>
<path d="M7035 1380 c3 -5 8 -10 11 -10 2 0 4 5 4 10 0 6 -5 10 -11 10 -5 0
-7 -4 -4 -10z"/>
<path d="M7387 1143 c6 -16 13 -16 37 2 18 14 17 14 -11 12 -20 -1 -29 -6 -26
-14z"/>
<path d="M7470 1125 c0 -10 29 -24 34 -17 3 6 -3 12 -14 15 -11 3 -20 4 -20 2z"/>
<path d="M8555 1110 c-3 -4 2 -11 11 -14 22 -8 34 -7 34 3 0 12 -39 21 -45 11z"/>
<path d="M7720 1101 c0 -5 5 -13 10 -16 6 -3 10 -2 10 4 0 5 -4 13 -10 16 -5
3 -10 2 -10 -4z"/>
<path d="M7575 1080 c-16 -17 -16 -20 -3 -15 9 4 19 13 22 21 7 19 2 18 -19
-6z"/>
<path d="M7598 1061 c-19 -19 -24 -36 -8 -26 13 8 13 -11 0 -36 -7 -13 -7 -19
0 -19 5 0 10 5 10 10 0 6 7 10 15 10 17 0 20 16 5 25 -6 4 -4 12 5 21 8 9 13
20 10 25 -9 13 -17 10 -37 -10z"/>
<path d="M7386 1055 c-7 -20 24 -20 50 0 18 14 17 14 -12 15 -19 0 -34 -6 -38
-15z"/>
<path d="M7769 1035 c-1 -3 -3 -9 -4 -15 -1 -5 -3 -13 -4 -16 0 -3 -14 3 -31
12 -26 16 -31 16 -47 2 -10 -8 -24 -13 -30 -11 -9 3 -13 -5 -12 -24 0 -19 3
-23 7 -12 6 14 9 14 27 -4 11 -11 14 -16 6 -12 -11 6 -13 4 -8 -9 4 -10 7 -20
7 -22 0 -2 5 -4 11 -4 11 0 129 87 129 95 0 3 -10 4 -22 2 -14 -1 -22 3 -20
11 2 11 -6 18 -9 7z m-4 -37 c5 4 5 1 1 -6 -4 -6 -20 -19 -36 -27 l-28 -15 11
30 c9 22 14 27 28 20 9 -5 20 -6 24 -2z"/>
<path d="M7420 992 c0 -12 6 -21 13 -19 13 2 13 -5 1 -38 -5 -16 -4 -18 6 -8
7 6 18 9 25 7 6 -3 18 3 26 12 12 16 12 17 -3 11 -22 -8 -23 -3 -2 17 14 15
13 16 -13 16 -16 0 -34 5 -41 12 -9 9 -12 7 -12 -10z"/>
<path d="M6867 993 c-4 -3 -7 -11 -7 -17 0 -6 5 -5 12 2 6 6 9 14 7 17 -3 3
-9 2 -12 -2z"/>
<path d="M6880 910 c0 -5 4 -10 9 -10 6 0 13 5 16 10 3 6 -1 10 -9 10 -9 0
-16 -4 -16 -10z"/>
<path d="M7017 803 c-4 -3 -7 -13 -7 -22 1 -13 3 -13 11 2 11 19 8 33 -4 20z"/>
<path d="M7335 789 c-11 -17 1 -21 15 -4 8 9 8 15 2 15 -6 0 -14 -5 -17 -11z"/>
<path d="M6977 683 c-4 -3 -7 -11 -7 -17 0 -6 5 -5 12 2 6 6 9 14 7 17 -3 3
-9 2 -12 -2z"/>
<path d="M6575 4350 c-16 -7 -17 -9 -3 -9 9 -1 20 4 23 9 7 11 7 11 -20 0z"/>
<path d="M8000 4330 c-12 -8 -9 -10 13 -10 15 0 27 5 27 10 0 13 -20 13 -40 0z"/>
<path d="M8152 4333 c-7 -3 -18 -16 -23 -30 -6 -17 -14 -23 -26 -19 -13 5 -14
4 -3 -9 18 -22 24 -19 48 25 11 22 20 40 19 39 -1 0 -8 -3 -15 -6z"/>
<path d="M8077 4323 c-3 -5 6 -9 20 -10 19 -1 22 1 12 8 -17 11 -26 11 -32 2z"/>
<path d="M8022 4301 c-11 -6 -9 -9 5 -13 12 -3 20 0 20 8 0 16 -6 17 -25 5z"/>
<path d="M8220 4290 c0 -5 5 -10 11 -10 5 0 7 5 4 10 -3 6 -8 10 -11 10 -2 0
-4 -4 -4 -10z"/>
<path d="M7790 4280 c20 -13 33 -13 25 0 -3 6 -14 10 -23 10 -15 0 -15 -2 -2
-10z"/>
<path d="M7836 4276 c7 -18 46 -28 58 -16 7 7 6 10 -2 11 -26 3 -31 4 -38 12
-12 12 -24 8 -18 -7z"/>
<path d="M8320 4280 c0 -5 7 -10 15 -10 8 0 15 5 15 10 0 6 -7 10 -15 10 -8 0
-15 -4 -15 -10z"/>
<path d="M8705 4248 c-6 -13 -20 -24 -32 -26 -27 -4 -33 -42 -7 -42 13 0 15
-9 10 -61 -4 -34 -10 -69 -15 -77 -5 -10 -3 -31 5 -56 8 -22 12 -46 10 -53 -3
-7 1 -13 10 -13 8 0 17 6 20 14 3 8 13 12 22 10 10 -3 4 5 -11 18 -32 28 -29
59 6 51 13 -3 18 -1 11 4 -16 12 -28 73 -14 73 6 0 1 13 -11 30 -20 26 -21 32
-9 55 7 14 19 25 27 25 7 0 13 5 13 10 0 6 -5 10 -10 10 -6 0 -8 11 -6 25 6
31 -6 33 -19 3z"/>
<path d="M7146 4245 c7 -17 13 -18 34 -5 8 5 11 12 7 17 -5 4 -12 1 -17 -7 -7
-10 -10 -11 -10 -2 0 6 -4 12 -10 12 -5 0 -7 -7 -4 -15z"/>
<path d="M8020 4250 c0 -5 -7 -10 -15 -10 -8 0 -15 -4 -15 -9 0 -14 90 -41
156 -47 33 -2 64 -7 71 -9 7 -2 15 1 19 6 3 6 17 8 30 5 32 -8 108 4 96 16 -5
5 -20 10 -33 10 -13 1 -30 6 -36 11 -9 6 -18 5 -29 -4 -13 -10 -17 -10 -24 0
-5 9 -16 11 -31 6 -21 -7 -22 -6 -10 9 12 14 10 16 -13 16 -14 0 -26 -4 -26
-10 0 -5 5 -10 11 -10 5 0 7 -5 4 -11 -4 -6 -13 -8 -20 -5 -8 3 -15 1 -17 -4
-2 -4 -25 -2 -53 5 -35 9 -50 17 -49 29 1 9 -2 16 -7 16 -5 0 -9 -4 -9 -10z"/>
<path d="M9385 4250 c-3 -5 -1 -10 4 -10 6 0 11 5 11 10 0 6 -2 10 -4 10 -3 0
-8 -4 -11 -10z"/>
<path d="M9885 4250 c3 -5 8 -10 11 -10 2 0 4 5 4 10 0 6 -5 10 -11 10 -5 0
-7 -4 -4 -10z"/>
<path d="M7905 4240 c3 -5 17 -10 31 -10 13 0 24 5 24 10 0 6 -14 10 -31 10
-17 0 -28 -4 -24 -10z"/>
<path d="M8949 4158 c-56 -74 -54 -71 -28 -63 28 8 51 34 43 47 -3 5 2 18 12
29 9 10 13 19 7 19 -5 0 -20 -14 -34 -32z"/>
<path d="M8584 4168 c-3 -5 -15 -9 -27 -9 -13 -1 -16 -3 -7 -5 9 -3 33 2 55
10 35 13 36 14 12 13 -16 -1 -31 -5 -33 -9z"/>
<path d="M8235 4100 c-3 -4 1 -10 8 -12 14 -6 37 1 37 11 0 10 -39 11 -45 1z"/>
<path d="M7600 4090 c0 -5 5 -10 10 -10 6 0 10 5 10 10 0 6 -4 10 -10 10 -5 0
-10 -4 -10 -10z"/>
<path d="M9000 4086 c0 -10 -4 -14 -10 -11 -5 3 -10 1 -10 -4 0 -12 7 -13 33
-2 17 6 17 8 3 20 -14 11 -16 11 -16 -3z"/>
<path d="M8850 4080 c-9 -6 -10 -10 -3 -10 6 0 15 5 18 10 8 12 4 12 -15 0z"/>
<path d="M8160 4064 c-24 -13 -24 -14 -4 -14 12 0 24 7 28 15 3 8 4 15 3 14
-1 -1 -13 -7 -27 -15z"/>
<path d="M8213 4065 c-7 -8 -9 -16 -4 -19 5 -3 12 1 15 10 8 22 4 25 -11 9z"/>
<path d="M8280 4050 c20 -13 33 -13 25 0 -3 6 -14 10 -23 10 -15 0 -15 -2 -2
-10z"/>
<path d="M8800 4044 c-15 -8 -19 -14 -10 -14 8 0 21 -9 28 -20 7 -12 18 -18
24 -14 7 5 5 10 -5 16 -9 4 -14 17 -12 28 2 11 3 20 2 19 -1 -1 -13 -7 -27
-15z"/>
<path d="M8849 4037 c7 -7 18 -7 33 0 22 10 21 11 -10 10 -22 0 -30 -3 -23
-10z"/>
<path d="M9775 4030 c-3 -6 1 -7 9 -4 18 7 21 14 7 14 -6 0 -13 -4 -16 -10z"/>
<path d="M8066 4011 c-12 -5 -15 -10 -9 -14 6 -4 16 0 23 8 14 17 13 17 -14 6z"/>
<path d="M8412 3990 c7 -10 14 -18 15 -16 6 6 -9 36 -18 36 -5 0 -4 -9 3 -20z"/>
<path d="M6523 3993 c-7 -2 -13 -9 -13 -15 0 -7 5 -7 13 1 8 6 18 7 22 3 5 -4
5 -1 1 6 -4 6 -8 12 -9 11 -1 0 -8 -3 -14 -6z"/>
<path d="M8717 3990 c4 -4 19 -11 33 -15 17 -4 21 -3 11 3 -11 8 -11 10 0 15
8 2 -1 5 -19 4 -18 0 -29 -3 -25 -7z"/>
<path d="M9770 3970 c-6 -11 -9 -20 -8 -21 2 0 24 -1 49 -2 36 -2 43 0 34 9
-7 7 -24 11 -39 10 -20 -3 -26 0 -22 10 8 21 -2 17 -14 -6z"/>
<path d="M8050 3969 c0 -5 5 -7 10 -4 6 3 10 8 10 11 0 2 -4 4 -10 4 -5 0 -10
-5 -10 -11z"/>
<path d="M8636 3951 c-3 -5 0 -11 8 -14 15 -6 26 1 26 15 0 11 -27 10 -34 -1z"/>
<path d="M9110 3949 c0 -5 5 -7 10 -4 6 3 10 8 10 11 0 2 -4 4 -10 4 -5 0 -10
-5 -10 -11z"/>
<path d="M7550 3929 c0 -11 60 -12 78 0 8 5 -4 8 -32 9 -26 0 -46 -4 -46 -9z"/>
<path d="M9150 3919 c0 -5 5 -7 10 -4 6 3 10 8 10 11 0 2 -4 4 -10 4 -5 0 -10
-5 -10 -11z"/>
<path d="M6275 3907 c23 -19 45 -22 45 -7 0 6 -6 10 -14 10 -8 0 -23 3 -33 6
-16 6 -16 5 2 -9z"/>
<path d="M8590 3904 c0 -8 6 -11 15 -8 8 4 15 9 15 13 0 4 -7 8 -15 8 -8 0
-15 -6 -15 -13z"/>
<path d="M5880 3635 c0 -8 -8 -31 -19 -50 -25 -48 -14 -102 33 -159 20 -25 43
-61 52 -81 14 -35 14 -37 -8 -55 -26 -22 -76 -18 -116 8 -28 18 -41 8 -20 -15
20 -25 58 -101 58 -118 0 -21 32 -35 78 -35 l40 0 4 51 c1 28 0 53 -3 55 -3 2
-9 47 -13 101 -7 105 -22 197 -37 225 -5 10 -9 26 -9 37 0 30 -11 51 -26 51
-8 0 -14 -7 -14 -15z"/>
<path d="M5810 3456 c0 -34 34 -84 67 -100 40 -19 49 -16 35 11 -17 31 -102
106 -102 89z"/>
<path d="M9970 3318 c0 -24 -3 -29 -10 -18 -5 8 -12 11 -16 7 -4 -4 2 -16 14
-27 l22 -21 0 46 c0 25 -2 45 -5 45 -3 0 -5 -15 -5 -32z"/>
<path d="M9925 3180 c3 -5 8 -10 11 -10 2 0 4 5 4 10 0 6 -5 10 -11 10 -5 0
-7 -4 -4 -10z"/>
<path d="M5970 2954 c0 -6 -11 -16 -25 -22 -34 -16 -32 -25 10 -45 48 -23 48
-22 40 21 -6 35 -25 69 -25 46z"/>
<path d="M9650 2956 c0 -2 7 -7 16 -10 8 -3 12 -2 9 4 -6 10 -25 14 -25 6z"/>
<path d="M9740 2890 c0 -5 3 -16 6 -24 6 -15 8 -15 20 1 18 24 17 28 -6 30
-11 1 -20 -2 -20 -7z"/>
<path d="M9006 2877 c3 -10 9 -15 12 -12 3 3 0 11 -7 18 -10 9 -11 8 -5 -6z"/>
<path d="M8930 2840 c0 -5 5 -10 10 -10 6 0 10 5 10 10 0 6 -4 10 -10 10 -5 0
-10 -4 -10 -10z"/>
<path d="M9280 2839 c0 -5 5 -7 10 -4 6 3 10 8 10 11 0 2 -4 4 -10 4 -5 0 -10
-5 -10 -11z"/>
<path d="M9460 2814 c0 -8 5 -12 10 -9 6 3 10 10 10 16 0 5 -4 9 -10 9 -5 0
-10 -7 -10 -16z"/>
<path d="M9505 2790 c-3 -6 1 -7 9 -4 18 7 21 14 7 14 -6 0 -13 -4 -16 -10z"/>
<path d="M6373 2765 c0 -8 4 -15 9 -15 4 0 8 4 8 9 0 6 -4 12 -8 15 -5 3 -9
-1 -9 -9z"/>
<path d="M9110 2770 c0 -5 5 -10 10 -10 6 0 10 5 10 10 0 6 -4 10 -10 10 -5 0
-10 -4 -10 -10z"/>
<path d="M9168 2753 c7 -3 16 -2 19 1 4 3 -2 6 -13 5 -11 0 -14 -3 -6 -6z"/>
<path d="M9806 2701 c-4 -7 -5 -15 -2 -18 9 -9 19 4 14 18 -4 11 -6 11 -12 0z"/>
<path d="M2420 2460 l0 -230 230 0 230 0 0 230 0 230 -230 0 -230 0 0 -230z
m378 166 c5 -23 -13 -42 -23 -25 -5 8 -4 10 3 5 7 -4 12 -3 12 3 0 5 -4 13
-10 16 -14 9 -12 27 3 23 6 -3 14 -13 15 -22z m40 -1 c2 -27 -13 -42 -24 -24
-4 8 -3 9 4 5 7 -4 12 -3 12 3 0 5 -5 11 -12 13 -6 2 -8 10 -4 16 12 19 21 14
24 -13z m-177 -55 c23 -13 26 -71 5 -89 -12 -10 -10 -16 11 -37 19 -19 23 -31
19 -52 -12 -48 -40 -62 -127 -62 l-79 0 0 125 0 125 76 0 c41 0 84 -5 95 -10z
m109 -72 c0 -9 3 -9 12 0 19 19 48 15 48 -8 0 -11 -6 -20 -14 -20 -30 0 -46
-30 -46 -86 0 -47 -2 -54 -20 -54 -19 0 -20 7 -20 90 0 83 1 90 20 90 11 0 20
-5 20 -12z"/>
<path d="M2540 2515 c0 -32 2 -35 29 -35 44 0 61 10 61 35 0 25 -17 35 -61 35
-27 0 -29 -3 -29 -35z"/>
<path d="M2540 2410 l0 -40 44 0 c48 0 71 18 61 48 -6 21 -32 32 -77 32 -26 0
-28 -3 -28 -40z"/>
<path d="M4070 2460 l0 -230 235 0 235 0 0 230 0 230 -235 0 -235 0 0 -230z
m375 181 c-3 -5 -1 -12 4 -15 5 -3 11 1 15 9 3 8 11 15 17 15 7 0 9 -3 6 -7
-4 -3 -2 -12 4 -20 13 -15 15 -14 -36 -18 -22 -1 -32 0 -22 2 9 3 15 9 11 14
-3 5 -10 7 -15 4 -5 -4 -9 1 -9 9 0 9 7 16 16 16 8 0 13 -4 9 -9z m-164 -71
c21 -12 27 -68 8 -87 -8 -8 -5 -19 11 -40 15 -22 19 -37 14 -57 -10 -43 -39
-56 -126 -56 l-78 0 0 125 0 125 76 0 c41 0 84 -5 95 -10z m201 -77 c14 -13
18 -31 18 -91 l0 -74 -26 5 c-15 3 -39 1 -54 -3 -34 -10 -70 7 -81 37 -11 31
16 60 69 76 24 6 43 17 43 22 -1 16 -52 18 -64 2 -7 -9 -19 -12 -30 -8 -16 6
-16 8 -2 29 13 17 26 22 62 22 29 0 53 -6 65 -17z"/>
<path d="M4160 2514 l0 -35 43 3 c36 3 43 7 45 27 4 29 -12 41 -55 41 -31 0
-33 -2 -33 -36z"/>
<path d="M4160 2410 l0 -40 43 0 c62 0 86 30 51 64 -9 9 -32 16 -55 16 -39 0
-39 0 -39 -40z"/>
<path d="M4413 2408 c-51 -14 -39 -57 11 -44 25 6 42 34 29 46 -4 4 -23 3 -40
-2z"/>
<path d="M6325 2600 c3 -5 8 -10 11 -10 2 0 4 5 4 10 0 6 -5 10 -11 10 -5 0
-7 -4 -4 -10z"/>
<path d="M9025 2600 c-3 -5 -1 -10 4 -10 17 0 13 -21 -6 -36 -10 -7 -15 -16
-10 -20 4 -4 14 1 22 12 8 10 15 16 16 12 1 -5 3 -12 4 -18 1 -5 3 -13 4 -16
0 -3 9 2 18 12 14 13 15 18 5 22 -7 2 -17 15 -22 28 -10 25 -25 31 -35 14z"/>
<path d="M9825 2599 c-4 -6 -5 -12 -2 -15 2 -3 7 2 10 11 7 17 1 20 -8 4z"/>
<path d="M3285 2576 c-25 -12 -27 -15 -12 -21 14 -6 17 -21 17 -100 0 -53 -4
-97 -10 -100 -18 -11 0 -25 34 -25 40 0 49 8 31 27 -17 16 -20 63 -6 63 6 0
24 -20 42 -45 25 -35 39 -45 61 -45 15 0 28 3 28 6 0 4 -21 29 -47 57 l-47 50
32 27 c18 14 32 30 32 33 0 4 -16 7 -36 7 -29 0 -35 -3 -30 -16 7 -19 -10 -44
-31 -44 -12 0 -14 13 -12 67 3 38 0 67 -6 69 -5 2 -23 -3 -40 -10z"/>
<path d="M4688 2578 c-31 -11 -36 -23 -13 -32 8 -3 15 -12 15 -21 0 -11 -11
-15 -44 -15 -57 0 -86 -32 -86 -96 0 -70 53 -105 111 -74 13 7 19 7 19 0 0
-13 40 -13 60 0 13 9 13 12 -2 21 -15 8 -18 26 -18 114 0 57 -3 106 -7 108 -5
2 -20 0 -35 -5z m-14 -101 c23 -17 19 -95 -6 -111 -43 -26 -85 52 -54 99 18
28 34 31 60 12z"/>
<path d="M3501 2567 c-9 -11 -8 -17 3 -26 18 -15 48 -3 44 18 -4 21 -32 26
-47 8z"/>
<path d="M9416 2555 c-9 -26 -7 -32 5 -12 6 10 9 21 6 23 -2 3 -7 -2 -11 -11z"/>
<path d="M9518 2563 c6 -2 9 -10 6 -15 -4 -7 -2 -8 5 -4 13 9 5 26 -12 25 -9
0 -8 -2 1 -6z"/>
<path d="M9791 2524 c0 -11 3 -14 6 -6 3 7 2 16 -1 19 -3 4 -6 -2 -5 -13z"/>
<path d="M3145 2513 c-27 -7 -45 -22 -45 -39 0 -19 24 -18 40 1 16 20 46 19
54 -1 9 -24 -2 -34 -40 -34 -35 0 -74 -28 -74 -53 0 -7 7 -22 15 -34 13 -19
24 -22 85 -21 39 0 73 5 77 11 4 6 1 13 -5 15 -7 2 -12 26 -12 61 0 31 -6 64
-12 73 -15 18 -53 27 -83 21z m50 -103 c3 -6 3 -19 0 -31 -9 -26 -58 -23 -63
5 -6 29 47 51 63 26z"/>
<path d="M3676 2504 c-14 -7 -26 -9 -26 -3 0 12 -41 11 -60 -1 -13 -8 -12 -11
4 -23 15 -11 17 -23 14 -63 -3 -27 -8 -57 -12 -66 -7 -16 -3 -18 33 -18 39 0
53 11 31 25 -13 8 -13 81 0 106 13 23 46 25 54 3 10 -25 7 -102 -4 -109 -22
-14 -8 -25 31 -25 35 0 40 2 33 18 -4 9 -10 44 -13 77 -4 33 -10 65 -14 71
-11 19 -44 23 -71 8z"/>
<path d="M3839 2503 c-30 -13 -45 -48 -34 -82 3 -11 2 -29 -4 -39 -5 -10 -6
-24 -1 -32 5 -8 3 -21 -3 -32 -10 -16 -8 -23 12 -39 51 -42 161 -11 161 46 0
32 -13 38 -78 39 -35 1 -57 6 -59 14 -3 8 8 12 36 12 49 0 81 27 81 68 0 15 5
33 12 40 7 7 10 12 8 13 -41 5 -109 1 -131 -8z m59 -25 c17 -17 15 -43 -4 -59
-31 -26 -70 25 -44 56 15 18 32 19 48 3z m32 -163 c0 -15 -29 -35 -52 -35 -22
0 -52 26 -44 38 11 18 96 15 96 -3z"/>
<path d="M2925 2484 c-56 -60 -17 -154 63 -154 40 0 99 39 73 48 -7 2 -18 -1
-24 -7 -15 -15 -60 -14 -75 1 -7 7 -12 20 -12 30 0 14 11 18 58 20 50 3 57 6
60 25 9 60 -97 87 -143 37z m95 -9 c17 -21 3 -35 -36 -35 -35 0 -44 16 -22 38
16 16 43 15 58 -3z"/>
<path d="M3491 2501 c-12 -8 -11 -12 3 -27 13 -13 17 -29 14 -63 -3 -25 -8
-54 -12 -63 -7 -16 -3 -18 33 -18 39 0 53 11 31 25 -5 3 -10 40 -10 81 0 70
-1 74 -22 74 -13 0 -29 -4 -37 -9z"/>
<path d="M9250 2430 c0 -5 5 -10 11 -10 5 0 7 5 4 10 -3 6 -8 10 -11 10 -2 0
-4 -4 -4 -10z"/>
<path d="M9755 2378 c-22 -51 -32 -104 -15 -75 6 9 8 22 5 27 -3 6 0 13 9 16
14 5 33 61 23 70 -2 3 -13 -14 -22 -38z"/>
<path d="M9176 2401 c-3 -5 1 -11 9 -14 9 -4 12 -1 8 9 -6 16 -10 17 -17 5z"/>
<path d="M9806 2391 c-4 -7 -5 -15 -2 -18 9 -9 19 4 14 18 -4 11 -6 11 -12 0z"/>
<path d="M6350 2340 c0 -5 5 -10 11 -10 5 0 7 5 4 10 -3 6 -8 10 -11 10 -2 0
-4 -4 -4 -10z"/>
<path d="M9815 2339 c-4 -6 -5 -13 -2 -16 7 -7 27 6 27 18 0 12 -17 12 -25 -2z"/>
<path d="M9755 2301 c-15 -30 -15 -35 0 -67 21 -44 27 -43 21 4 -2 20 1 42 6
49 6 8 6 18 0 29 -8 15 -12 13 -27 -15z"/>
<path d="M6350 2305 c0 -8 4 -15 10 -15 5 0 7 7 4 15 -4 8 -8 15 -10 15 -2 0
-4 -7 -4 -15z"/>
<path d="M9709 2285 c-3 -5 -6 -37 -6 -70 l-2 -60 10 45 c10 46 9 103 -2 85z"/>
<path d="M9842 2215 c0 -16 2 -22 5 -12 2 9 2 23 0 30 -3 6 -5 -1 -5 -18z"/>
<path d="M9730 2176 c0 -31 6 -34 13 -6 3 11 1 23 -4 26 -5 3 -9 -6 -9 -20z"/>
<path d="M9816 2185 c-9 -26 -7 -32 5 -12 6 10 9 21 6 23 -2 3 -7 -2 -11 -11z"/>
<path d="M9810 2129 c0 -5 5 -7 10 -4 6 3 10 8 10 11 0 2 -4 4 -10 4 -5 0 -10
-5 -10 -11z"/>
<path d="M6396 2113 c-6 -14 -5 -15 5 -6 7 7 10 15 7 18 -3 3 -9 -2 -12 -12z"/>
<path d="M9440 2099 c0 -5 5 -7 10 -4 6 3 10 8 10 11 0 2 -4 4 -10 4 -5 0 -10
-5 -10 -11z"/>
<path d="M9807 2016 c-3 -8 -2 -18 4 -22 16 -9 22 2 11 21 -8 15 -10 16 -15 1z"/>
<path d="M6480 1959 c0 -5 5 -7 10 -4 6 3 10 8 10 11 0 2 -4 4 -10 4 -5 0 -10
-5 -10 -11z"/>
<path d="M9488 1944 c4 -22 6 -24 14 -10 9 16 3 36 -11 36 -5 0 -6 -12 -3 -26z"/>
<path d="M9440 1950 c0 -5 5 -10 11 -10 5 0 7 5 4 10 -3 6 -8 10 -11 10 -2 0
-4 -4 -4 -10z"/>
<path d="M9737 1940 c3 -11 9 -17 14 -15 10 7 1 35 -11 35 -5 0 -6 -9 -3 -20z"/>
<path d="M6505 1913 c4 -10 10 -26 12 -35 6 -19 23 -25 23 -9 0 21 -20 61 -31
61 -7 0 -8 -7 -4 -17z"/>
<path d="M6510 1800 c0 -5 5 -10 10 -10 6 0 10 5 10 10 0 6 -4 10 -10 10 -5 0
-10 -4 -10 -10z"/>
<path d="M9518 1765 c2 -14 9 -25 14 -25 6 0 7 7 4 16 -3 9 -6 20 -6 25 0 5
-4 9 -9 9 -4 0 -6 -11 -3 -25z"/>
<path d="M6514 1699 c-5 -9 -2 -10 9 -6 9 3 18 2 21 -4 2 -5 3 -4 2 3 -3 17
-23 21 -32 7z"/>
<path d="M9540 1702 c0 -5 7 -13 16 -16 10 -4 14 -1 12 6 -5 15 -28 23 -28 10z"/>
<path d="M6340 1584 c0 -8 5 -12 10 -9 6 3 10 10 10 16 0 5 -4 9 -10 9 -5 0
-10 -7 -10 -16z"/>
<path d="M9535 1550 c-3 -5 -1 -10 4 -10 6 0 11 5 11 10 0 6 -2 10 -4 10 -3 0
-8 -4 -11 -10z"/>
<path d="M6425 841 c-6 -11 9 -23 19 -14 9 9 7 23 -3 23 -6 0 -12 -4 -16 -9z"/>
<path d="M6713 828 c2 -12 9 -24 15 -26 6 -2 9 5 7 15 -2 10 -4 21 -4 26 -1 4
-5 7 -11 7 -5 0 -8 -10 -7 -22z"/>
<path d="M6664 741 c0 -28 4 -51 8 -51 5 0 8 7 8 16 0 13 3 14 14 5 19 -16 10
27 -13 58 -18 23 -18 23 -17 -28z"/>
<path d="M6757 767 c3 -15 9 -27 14 -27 13 0 11 13 -5 35 -13 18 -14 18 -9 -8z"/>
<path d="M6600 770 c0 -5 5 -10 10 -10 6 0 10 5 10 10 0 6 -4 10 -10 10 -5 0
-10 -4 -10 -10z"/>
<path d="M6720 765 c7 -8 17 -15 22 -15 6 0 5 7 -2 15 -7 8 -17 15 -22 15 -6
0 -5 -7 2 -15z"/>
<path d="M6343 753 c-20 -7 -15 -30 7 -36 11 -3 20 -4 20 -2 0 2 3 10 6 18 6
16 -13 27 -33 20z"/>
<path d="M6396 747 c3 -10 9 -15 12 -12 3 3 0 11 -7 18 -10 9 -11 8 -5 -6z"/>
<path d="M6580 692 c0 -5 7 -13 16 -16 10 -4 14 -1 12 6 -5 15 -28 23 -28 10z"/>
<path d="M6688 662 c-19 -4 -26 -42 -8 -42 9 0 35 39 28 44 -2 1 -11 1 -20 -2z"/>
</g>
</svg>
